<svg width="243" height="190" viewBox="0 0 243 190" fill="none" xmlns="http://www.w3.org/2000/svg">
<mask id="mask0" mask-type="alpha" maskUnits="userSpaceOnUse" x="0" y="0" width="243" height="190">
<rect width="243" height="190" rx="10" fill="#F1F5FF"/>
</mask>
<g mask="url(#mask0)">
<path d="M96.7887 89.7061L95.5684 103.641L200.156 101.666L199.573 89.7061H96.7887Z" fill="#FFC98A"/>
<path d="M144.119 131.642C139.94 131.999 135.77 132.45 131.596 132.855C130.014 129.26 128.928 125.467 128.368 121.58C132.968 121.287 137.566 120.967 142.185 120.83C142.373 124.501 143.023 128.133 144.119 131.642ZM114.772 122.141C118.949 122.088 123.194 121.932 127.423 121.649C127.952 125.545 129.011 129.351 130.572 132.96C126.442 133.356 122.071 133.704 117.85 133.804C116.292 130.076 115.256 126.152 114.771 122.141H114.772ZM132.404 142.881C129.329 142.985 126.254 143.065 123.179 143.122C121.237 140.531 119.589 137.731 118.265 134.776C122.497 134.655 126.728 134.311 130.969 133.899C132.285 136.994 133.903 139.951 135.799 142.728C134.666 142.78 133.532 142.825 132.397 142.864L132.404 142.881ZM136.892 142.713C134.976 139.912 133.336 136.932 131.994 133.815C136.119 133.405 140.251 132.964 144.416 132.616C145.521 135.942 147.058 139.109 148.988 142.035C136.693 142.839 136.892 142.576 136.892 142.713ZM165.379 143.941C166.87 146.351 168.936 148.446 169.253 149.416C170.521 153.326 163.837 144.688 163.401 143.888C163.809 143.851 165.379 143.764 165.379 143.931V143.941ZM160.64 140.938C156.642 141.322 154.343 141.656 150.416 141.942C150.332 141.948 150.247 141.933 150.17 141.897C150.093 141.86 150.027 141.805 149.978 141.736C148.156 139.073 146.693 136.181 145.626 133.136C145.605 133.076 145.596 133.012 145.6 132.948C145.604 132.884 145.62 132.822 145.648 132.765C145.676 132.707 145.715 132.656 145.763 132.613C145.811 132.571 145.866 132.539 145.927 132.518C146.126 132.448 154.19 131.894 154.562 131.87C154.689 131.857 154.806 131.796 154.89 131.7C154.974 131.604 155.018 131.479 155.013 131.352C155.009 131.224 154.956 131.103 154.865 131.013C154.775 130.924 154.654 130.871 154.526 130.868C154.526 130.868 148.494 131.294 145.497 131.526C145.386 131.535 145.276 131.507 145.184 131.444C145.092 131.382 145.025 131.29 144.993 131.184C144.025 127.97 143.416 124.659 143.178 121.311C143.169 121.183 143.212 121.056 143.296 120.959C143.381 120.862 143.501 120.802 143.629 120.793C144.207 120.755 152.694 120.69 155.065 120.674C155.182 120.673 155.294 120.714 155.383 120.789C155.472 120.864 155.531 120.969 155.55 121.083C155.959 123.554 157.847 130.375 158.521 132.813C158.558 132.94 158.642 133.047 158.757 133.112C158.872 133.178 159.008 133.195 159.135 133.161C159.263 133.127 159.372 133.044 159.439 132.931C159.506 132.817 159.526 132.682 159.495 132.553C158.861 130.271 156.979 123.575 156.586 121.224C156.576 121.161 156.578 121.096 156.594 121.033C156.609 120.971 156.636 120.912 156.674 120.86C156.712 120.808 156.76 120.765 156.815 120.731C156.871 120.698 156.932 120.676 156.995 120.667C157.02 120.667 157.044 120.623 157.07 120.623H168.4C168.512 120.614 168.624 120.647 168.713 120.716C168.802 120.785 168.862 120.885 168.882 120.996C169.016 121.872 169.171 122.744 169.344 123.61C169.375 123.733 169.453 123.839 169.56 123.907C169.667 123.974 169.796 123.998 169.92 123.973C170.045 123.948 170.155 123.877 170.228 123.773C170.3 123.669 170.331 123.542 170.312 123.416C170.167 122.655 170.03 121.893 169.903 121.13C169.893 121.067 169.896 121.002 169.911 120.94C169.927 120.878 169.954 120.819 169.992 120.768C170.03 120.716 170.078 120.673 170.133 120.64C170.188 120.607 170.249 120.585 170.312 120.576C170.449 120.554 183.354 120.439 182.534 120.447C182.653 120.446 182.768 120.488 182.857 120.566C182.947 120.644 183.005 120.752 183.02 120.869C183.356 123.593 183.868 126.293 184.553 128.951C184.573 129.024 184.575 129.1 184.56 129.174C184.545 129.248 184.514 129.317 184.467 129.377C184.421 129.436 184.361 129.484 184.293 129.516C184.225 129.548 184.151 129.564 184.075 129.563C180.626 129.488 177.046 129.509 173.532 129.657C173.408 129.665 173.291 129.722 173.207 129.814C173.123 129.906 173.077 130.027 173.08 130.151C173.082 130.276 173.132 130.395 173.22 130.484C173.308 130.572 173.427 130.624 173.551 130.627C175.272 130.61 178.004 130.417 184.669 130.563C184.77 130.567 184.867 130.601 184.947 130.662C185.028 130.723 185.087 130.807 185.118 130.903C185.972 133.59 187.093 136.184 188.465 138.647C188.506 138.719 188.527 138.801 188.527 138.884C188.527 138.967 188.506 139.048 188.466 139.121C188.426 139.193 188.368 139.255 188.297 139.298C188.227 139.342 188.147 139.367 188.064 139.371C185.541 139.477 177.948 139.733 176.68 139.801C176.589 139.806 176.498 139.785 176.418 139.741C176.338 139.697 176.273 139.631 176.228 139.552C175.948 139.044 175.675 138.533 175.409 138.019C175.358 137.917 175.272 137.837 175.167 137.792C175.062 137.748 174.945 137.742 174.836 137.776L174.754 137.802C174.693 137.821 174.636 137.852 174.587 137.894C174.538 137.935 174.498 137.986 174.468 138.043C174.439 138.099 174.421 138.162 174.416 138.225C174.41 138.289 174.418 138.354 174.437 138.415C174.464 138.495 174.47 138.581 174.453 138.664L174.337 139.251C174.321 139.335 174.282 139.413 174.225 139.477C174.169 139.542 174.096 139.59 174.015 139.617L172.881 139.994C172.768 140.035 172.673 140.114 172.613 140.218C172.554 140.322 172.533 140.444 172.555 140.562C172.576 140.68 172.639 140.787 172.732 140.863C172.826 140.939 172.942 140.979 173.063 140.977C173.873 140.925 174.684 140.879 175.494 140.84C175.585 140.835 175.676 140.856 175.756 140.9C175.836 140.945 175.902 141.011 175.945 141.091C176.97 142.994 182.907 151.823 181.843 147.927C181.736 147.531 179.987 145.88 177.327 141.468C177.261 141.358 177.241 141.226 177.272 141.102C177.303 140.977 177.382 140.87 177.492 140.803C177.743 140.653 183.78 140.564 189.152 140.32C189.235 140.317 189.318 140.335 189.392 140.374C189.466 140.413 189.529 140.47 189.575 140.54C191.009 142.69 196.144 150.547 196.513 148.526C196.554 148.051 196.376 148.088 196.038 147.63C194.233 145.5 192.551 143.271 191 140.951C190.953 140.879 190.925 140.797 190.921 140.712C190.916 140.627 190.933 140.542 190.972 140.465C191.01 140.389 191.068 140.324 191.14 140.278C191.211 140.231 191.294 140.204 191.379 140.2C193.788 140.081 199.706 139.982 197.826 138.842C197.53 138.662 197.217 138.939 190.249 139.284C190.162 139.288 190.075 139.268 189.998 139.227C189.921 139.186 189.856 139.125 189.811 139.051C188.346 136.596 187.155 133.986 186.262 131.27C186.221 131.148 186.231 131.015 186.288 130.9C186.346 130.784 186.447 130.697 186.569 130.656C186.805 130.578 197.378 131.029 197.685 131.041C198.323 131.067 198.32 130.086 197.685 130.053C193.827 129.896 189.965 129.727 186.102 129.615C185.999 129.612 185.898 129.577 185.816 129.513C185.734 129.45 185.675 129.362 185.646 129.262C184.908 126.528 184.36 123.746 184.008 120.936C184.002 120.873 184.007 120.809 184.025 120.749C184.043 120.688 184.073 120.631 184.113 120.582C184.152 120.533 184.202 120.492 184.257 120.462C184.313 120.432 184.374 120.413 184.437 120.406C186.135 120.226 200.612 120.816 197.721 119.178C197.38 118.983 197.624 119.257 184.258 119.465C184.139 119.467 184.023 119.426 183.933 119.348C183.843 119.271 183.785 119.162 183.769 119.044C183.447 116.515 183.408 113.818 183.087 111.223C183.078 111.152 183.054 111.083 183.016 111.023C182.978 110.962 182.927 110.91 182.867 110.871C181.453 109.994 182.649 116.943 182.828 118.962C182.839 119.09 182.8 119.218 182.718 119.316C182.635 119.415 182.517 119.477 182.389 119.489C182.389 119.489 174.193 119.574 170.113 119.598C169.994 119.599 169.88 119.556 169.79 119.478C169.701 119.401 169.644 119.293 169.628 119.175C169.323 116.559 169.186 113.925 169.219 111.291C169.219 111.227 169.207 111.163 169.182 111.103C169.158 111.044 169.121 110.99 169.075 110.944C167.523 109.443 168.419 116.95 168.639 119.063C168.652 119.191 168.615 119.318 168.535 119.418C168.455 119.518 168.339 119.582 168.211 119.596C168.195 119.596 168.177 119.637 168.161 119.637H156.758C156.647 119.645 156.536 119.613 156.447 119.545C156.359 119.477 156.298 119.379 156.277 119.269C155.815 116.422 155.669 113.4 155.239 110.465C155.231 110.403 155.211 110.343 155.179 110.288C155.147 110.234 155.104 110.187 155.053 110.15C153.5 109.058 155.032 116.953 155.308 119.147C155.317 119.214 155.312 119.283 155.292 119.349C155.272 119.414 155.239 119.475 155.194 119.527C155.149 119.578 155.093 119.62 155.031 119.648C154.969 119.677 154.902 119.692 154.833 119.693C151.122 119.725 147.326 119.729 143.558 119.829C143.433 119.833 143.312 119.789 143.219 119.704C143.126 119.62 143.07 119.504 143.062 119.379C142.899 116.735 143.062 113.931 142.892 111.228C142.889 111.153 142.867 111.08 142.829 111.014C142.791 110.949 142.738 110.894 142.674 110.854C141.32 110.035 142.087 117.376 142.142 119.395C142.145 119.523 142.098 119.647 142.011 119.74C141.923 119.834 141.803 119.889 141.675 119.893C137.352 120.03 133.044 120.278 128.718 120.576C128.592 120.584 128.468 120.543 128.371 120.461C128.274 120.38 128.214 120.263 128.201 120.138C127.984 117.192 128.039 114.232 128.366 111.297C128.378 111.179 128.347 111.061 128.279 110.963C126.777 108.868 127.095 117.941 127.265 120.187C127.275 120.314 127.234 120.439 127.152 120.537C127.07 120.635 126.953 120.696 126.827 120.708C123.005 120.962 119.008 121.085 115.133 121.146C115.011 121.148 114.893 121.104 114.802 121.023C114.711 120.942 114.654 120.829 114.643 120.708C114.385 117.609 114.476 114.49 114.916 111.411C114.932 111.306 114.913 111.198 114.861 111.105C113.371 108.375 113.477 118.358 113.654 120.697C113.659 120.76 113.652 120.823 113.633 120.883C113.613 120.943 113.582 120.998 113.542 121.046C113.501 121.094 113.451 121.134 113.395 121.162C113.339 121.191 113.278 121.208 113.215 121.213C110.664 121.414 101.428 120.61 102.329 122.01C102.371 122.071 102.427 122.122 102.492 122.158C102.558 122.194 102.63 122.214 102.705 122.216C106.208 122.398 109.854 122.14 113.394 122.166C113.511 122.168 113.625 122.212 113.712 122.29C113.8 122.369 113.857 122.476 113.871 122.593C114.329 126.222 115.231 129.782 116.556 133.191C116.584 133.263 116.594 133.341 116.586 133.418C116.577 133.495 116.55 133.569 116.507 133.633C116.464 133.697 116.407 133.751 116.339 133.788C116.271 133.826 116.196 133.846 116.118 133.849C113.084 133.883 109.94 133.734 106.847 133.48C106.783 133.474 106.718 133.481 106.657 133.502C106.595 133.522 106.539 133.555 106.491 133.599C104.842 135.154 114.954 134.777 116.915 134.796C117.009 134.796 117.1 134.823 117.178 134.874C117.256 134.926 117.317 134.998 117.354 135.084C118.494 137.666 119.877 140.134 121.484 142.455C121.557 142.561 121.584 142.691 121.561 142.817C121.538 142.943 121.465 143.055 121.36 143.128C120.862 143.469 112.193 142.571 113.852 144.118C113.939 144.196 114.051 144.24 114.168 144.242C116.881 144.314 119.718 144.146 122.457 144.133C122.532 144.131 122.606 144.147 122.673 144.18C122.74 144.213 122.799 144.261 122.844 144.321C124.312 146.252 130.796 153.477 131.181 151.505C131.181 151.086 130.992 151.14 130.582 150.764C128.385 149.014 126.374 147.042 124.582 144.879C124.524 144.809 124.487 144.724 124.475 144.634C124.463 144.543 124.476 144.451 124.514 144.368C124.552 144.285 124.612 144.215 124.688 144.165C124.764 144.114 124.853 144.087 124.944 144.085C137.068 143.812 136.381 143.551 136.65 143.948C138.047 145.966 144.096 152.709 144.589 150.9C144.653 150.392 144.401 150.401 143.952 150.052C141.758 148.476 139.812 146.581 138.179 144.43C138.139 144.381 138.108 144.324 138.089 144.264C138.071 144.203 138.064 144.139 138.07 144.075C138.076 144.012 138.095 143.95 138.125 143.894C138.155 143.838 138.195 143.788 138.245 143.748C138.591 143.46 139.106 143.787 149.394 143.006C149.475 143 149.557 143.015 149.632 143.049C149.706 143.083 149.771 143.136 149.82 143.202C151.429 145.362 157.6 152.789 157.894 150.846C157.91 150.407 157.723 150.45 157.338 150.027C155.196 148.035 153.204 145.888 151.378 143.603C151.325 143.535 151.29 143.453 151.278 143.367C151.266 143.281 151.278 143.193 151.312 143.112C151.346 143.032 151.4 142.962 151.47 142.91C151.54 142.858 151.622 142.826 151.709 142.817C154.2 142.567 157.442 142.346 160.117 142.159C160.262 142.149 160.398 142.084 160.498 141.978C160.598 141.872 160.655 141.732 160.656 141.587L160.64 140.938Z" fill="#354545"/>
<path d="M165.079 134.442C165.355 133.497 165.729 132.585 166.197 131.72C166.659 132.564 167.202 133.361 167.817 134.1C167.962 134.203 169.162 133.848 170.513 133.88C169.926 134.828 169.169 136.041 169.169 136.041C169.48 136.841 169.723 137.666 169.895 138.506C169.009 138.093 168.078 137.783 167.121 137.582C166.277 137.946 165.454 138.356 164.655 138.811C164.67 137.978 164.774 137.149 164.966 136.339L162.807 135.11L165.079 134.442Z" fill="#FFC98A"/>
<path d="M173.1 141.582C182.062 132.463 169.211 123.61 161.404 128.305C152.969 134.296 159.368 147.239 168.809 145.318C172.414 144.699 172.073 141.906 169.892 142.725C163.557 145.927 157.456 138.63 160.135 132.722C162.544 126.654 172.399 128.386 174.058 134.203C175.693 136.698 168.564 142.62 173.1 141.582Z" fill="#FFC98A"/>
<path d="M137.772 117.725C134.048 114.926 134.852 116.067 136.759 113.069C138.501 111.407 136.388 109.827 135.258 111.79C134.479 112.511 133.871 114.493 133.21 114.199C132.017 113.38 130.004 111.326 129.065 113.038C128.235 114.571 133.333 115.208 131.931 116.468C130.946 117.734 130.048 119.066 129.242 120.454C129.776 122.677 131.537 120.71 132.148 119.561C132.997 118.775 133.525 116.569 134.332 117.548C135.39 118.204 136.107 119.262 137.366 119.621C137.563 119.573 137.741 119.47 137.882 119.325C138.023 119.179 138.12 118.998 138.162 118.8C138.204 118.602 138.19 118.397 138.121 118.207C138.052 118.017 137.931 117.85 137.772 117.725Z" fill="#FFC98A"/>
<path d="M152.353 117.027C151.893 116.371 149.317 115.31 149.858 114.77C150.704 113.615 152.451 112.847 152.178 111.622C150.746 109.165 149.095 113.911 147.798 113.659C146.383 112.418 143.986 111.234 144.659 113.843C144.917 114.459 147.013 114.901 146.463 115.481C145.738 116.466 143.924 117.475 144.93 118.637C146.133 119.772 147.173 117.292 148.078 116.637C148.861 116.124 150.449 118.515 151.406 118.631C152.341 118.809 153.157 117.713 152.353 117.027Z" fill="#FFC98A"/>
<path d="M164.295 112.11C163.152 112.949 161.785 115.833 160.928 114.43C160.015 113.692 159.527 113.065 158.519 112.347C158.285 112.246 158.021 112.239 157.781 112.326C157.542 112.414 157.345 112.59 157.231 112.818C157.117 113.046 157.095 113.309 157.169 113.553C157.243 113.797 157.407 114.003 157.629 114.13C159.717 116.276 160.95 115.993 159.223 117.484C157.819 118.607 157.328 120.17 159.196 120.214C160.126 119.457 160.98 118.611 161.746 117.688C162.803 118.346 164.527 120.564 165.39 119.441C166.376 118.026 164.145 117.317 163.329 116.448C162.698 115.805 166.123 113.738 165.957 112.919C165.977 112.719 165.935 112.517 165.837 112.341C165.739 112.164 165.59 112.023 165.409 111.934C165.227 111.846 165.023 111.816 164.824 111.847C164.625 111.878 164.441 111.97 164.295 112.11Z" fill="#FFC98A"/>
<path d="M180.912 116.313C177.168 114.161 179.199 114.821 180.561 112.205C180.718 111.698 180.341 111.316 179.847 111.136C178.156 110.582 177.547 114.606 176.343 113.352C175.047 112.695 172.167 111.111 171.566 112.299C171.486 112.427 171.436 112.572 171.421 112.722C171.406 112.873 171.425 113.025 171.478 113.167C171.531 113.308 171.615 113.436 171.725 113.54C171.835 113.644 171.967 113.721 172.112 113.766C172.794 114.073 176.054 114.958 175.366 115.47C174.352 116.725 171.206 118.86 173.955 119.468C177.52 117.397 176.031 115.015 179.43 117.715C180.684 118.948 182.11 117.341 180.912 116.313Z" fill="#FFC98A"/>
<path d="M123.337 127.24C124.475 126.109 127.295 123.637 124.212 123.635C123.138 124.058 122.312 126.174 121.427 125.993C120.199 125.438 118.512 123.809 117.588 125.15C117.465 125.334 117.419 125.558 117.46 125.775C117.501 125.992 117.625 126.185 117.806 126.311C118.259 126.799 120.719 127.286 120.187 127.891C119.337 129.239 117.824 130.359 117.66 131.986C119.085 134.548 120.989 129.456 122.04 128.743C123.331 129.476 124.309 130.884 125.678 131.552C128.892 130.873 124.294 128.055 123.337 127.24Z" fill="#FFC98A"/>
<path d="M193.296 116.097C192.887 115.687 190.265 114.608 190.976 114.227C192.318 113.245 194.979 111.618 192.522 110.798C191.322 111.432 190.203 112.211 189.193 113.118C188.613 112.759 188.07 111.644 187.174 111.568C185.823 111.841 186.044 113.086 187.071 113.842C187.589 114.463 187.664 114.4 187.439 114.595C187.27 114.034 187.396 114.157 187.658 114.4C186.574 115.525 185.337 116.125 184.753 117.415C185.564 120.878 188.12 115.473 189.408 115.869C194.096 119.853 194.23 116.711 193.296 116.097Z" fill="#FFC98A"/>
<path d="M114.055 131.594C113.178 130.52 109.631 128.822 110.215 128.366C111.076 127.337 112.348 126.698 112.993 125.386C113.006 125.186 112.96 124.986 112.859 124.812C112.759 124.637 112.61 124.497 112.43 124.407C112.25 124.318 112.048 124.284 111.848 124.309C111.649 124.334 111.461 124.418 111.31 124.55C110.39 125.435 109.272 126.521 108.307 127.464C108.016 127.285 107.534 126.996 107.052 126.72C105.723 125.734 104.157 125.471 104.339 127.254C104.864 128.066 106.063 128.281 106.857 128.892C106.175 129.79 104.632 130.557 104.351 131.803C105.42 134.906 107.541 129.865 108.813 130.126C110.432 131.029 111.505 132.434 113.278 133.234C113.477 133.258 113.679 133.219 113.855 133.122C114.031 133.026 114.172 132.876 114.258 132.694C114.344 132.513 114.371 132.309 114.334 132.111C114.298 131.914 114.2 131.733 114.055 131.594Z" fill="#FFC98A"/>
<path d="M54.5841 136.176C56.0146 134.093 52.6294 131.011 50.5178 133.405C48.9317 135.563 52.4097 138.745 54.5841 136.176ZM51.1716 134.481C51.4446 132.998 54.812 133.775 53.5044 135.702C52.5543 136.477 51.3149 136.023 51.1744 134.481H51.1716Z" fill="#354545"/>
<path d="M66.4619 137.909C69.5836 135.665 67.8269 132.434 64.5714 132.71C62.4557 134.037 62.9102 138.377 66.4619 137.909ZM64.8089 134.024C64.8818 133.944 64.9293 133.845 64.9454 133.738C70.2142 134.278 63.3088 140.111 64.8089 134.024Z" fill="#354545"/>
<path d="M81.1976 141.348C81.3969 138.967 77.1149 137.04 75.9042 140.177C74.6935 143.313 80.6475 145.22 81.1976 141.348ZM76.8966 140.959C76.7014 139.141 80.1357 139.246 80.0565 141.31C79.8135 143.068 77.4739 142.771 76.8966 140.952V140.959Z" fill="#354545"/>
<path d="M122.426 179.793C124.135 178.787 123.741 173.978 120.495 175.003C117.686 176.017 119.176 180.42 122.426 179.793ZM121.607 175.992C122.447 176.013 122.957 178.84 121.404 178.735C119.853 178.426 119.691 175.811 121.604 175.992H121.607Z" fill="#354545"/>
<path d="M224.303 158.379C200.347 131.185 201.89 117.087 200.779 89.6104C198.389 88.1689 194.773 88.6289 191.613 88.5525C191.887 87.306 191.718 86.0029 191.136 84.867C189.109 78.337 181.833 78.483 178.374 83.2878C176.127 78.5567 168.281 77.5712 165.33 82.9001C163.497 77.4238 154.534 77.4115 151.774 82.6803C149.655 77.9029 142.839 77.3419 139.462 81.7631C136.694 77.6545 129.617 78.1077 126.858 82.7008C124.381 78.4912 117.902 79.1246 115.119 83.2932C112.389 77.3801 102.346 78.195 101.403 85.1264C101.311 86.3252 101.434 87.5306 101.766 88.6863C99.8947 88.7136 98.0228 88.7381 96.1501 88.76C92.3936 97.9586 94.0808 110.616 93.932 121.083C93.6139 138.827 102.714 151.814 115.537 161.411C120.163 164.258 142.837 161.533 145.924 161.493C181.079 161.038 200.648 160.078 211.488 160.067C211.537 161.397 211.875 163.646 209.955 163.661C186.102 163.846 163.28 164.881 139.67 165.15C84.4781 164.751 98.1839 170.667 93.472 149.204C88.9675 111.192 94.7619 86.7384 91.6975 88.5156C90.0008 88.9333 90.9754 91.2552 90.5769 92.7921C89.2624 115.101 89.1777 136.796 92.8632 158.781C94.5694 166.16 92.8632 167.809 97.9832 167.36C114.848 167.337 202.015 166.238 208.82 165.722C196.979 173.753 98.2016 171.572 94.4179 171.841C87.4934 172.334 86.1188 171.74 88.0912 106.816C88.1909 103.551 88.4188 90.5194 87.3896 89.4042C86.0642 91.0845 84.3211 111.643 84.7497 136.401C75.4679 128.347 60.1146 126.362 48.1123 127.136C44.3872 127.377 39.8923 127.055 36.701 129.3C34.5635 139.593 32.3208 150.273 30.0959 160.943C19.3125 209.423 23.5016 177.641 63.658 201.46C82.2368 214.689 92.5779 234.417 116.232 233.993C119.007 227.233 120.213 219.66 122.583 212.426C126.485 196.958 133.339 178.028 132.893 174.108C150.045 173.678 200.437 171.911 209.401 171.466C210.817 171.853 210.637 167.592 210.205 165.583C214.407 165.207 213.11 160.108 213.053 160.058C225.606 160.06 224.854 160.174 224.303 158.379ZM113.788 231.859C71.7019 223.278 81.4519 192.656 26.7667 187.597C33.1821 157.827 36.2438 143.134 37.7548 135.808C38.6994 131.233 41.2669 129.82 47.5827 129.393C72.0663 127.715 80.9401 136.814 84.8098 138.92C84.9695 145.861 85.3039 153.087 85.8677 160.286C84.5696 161.479 83.9089 165.584 82.8647 167.169C70.2495 152.981 67.6684 159.698 69.5752 153.01C71.8793 142.606 68.37 151.347 67.6984 155.615C62.3564 153.624 56.7841 152.315 51.1139 151.721C51.2586 149.575 54.4239 143.075 52.3997 143.21C49.3489 148.773 52.9061 152.588 45.0834 151.641C43.3539 153.438 47.8557 152.401 49.7148 152.733C46.7555 161.773 49.3298 163.744 42.3029 162.24C40.5516 163.786 44.9865 163.39 46.7582 163.964C43.1137 178.142 45.9174 172.788 36.1496 174.176C36.0131 176.224 41.5918 174.395 43.773 175.3C43.6106 176.879 40.497 184.582 42.9294 182.799C44.4241 171.41 48.0522 176.612 56.1165 178.007C63.7495 178.902 57.2276 184.576 57.0365 189.627C59.2601 190.133 59.9235 181.837 61.1656 180.05C78.8216 192.028 72.9768 190.872 72.6314 195.835C74.2012 196.244 74.1493 193.541 75.0515 191.893C89.6732 209.106 88.5758 203.705 86.1079 212.339C87.5097 214.689 88.1458 208.018 88.9048 206.501C100.706 214.779 102.572 210.415 99.1012 218.512C100.076 221.009 101.36 215.347 102.058 213.589C103.713 214.114 111.749 217.729 109.923 215.122C97.7253 212.987 104.684 208.474 105.761 200.275C107.423 200.847 115.63 204.596 113.802 201.958C102.473 199.329 107.126 197.991 108.545 190.377C111.2 191.235 118.996 195.256 118.799 193.057C112.579 189.467 106.737 192.181 110.235 184.386C108.996 182.237 108.536 187.047 107.827 188.855C87.9315 180.642 101.756 177.873 97.1547 175.952C96.585 177.681 96.0245 179.41 95.473 181.139C81.1789 165.996 83.4612 169.005 86.0465 162.511C86.2922 165.397 86.5761 168.273 86.901 171.119C87.0375 172.672 89.6159 174.464 91.0614 174.481C104.74 174.617 118.038 174.451 131.166 174.135C120.488 208.897 116.233 232.656 113.788 231.859ZM63.6731 168.733C58.7198 166.262 53.4927 164.384 48.1 163.136C49.01 159.697 49.92 156.256 50.8299 152.814C72.9126 156.462 67.151 154.892 63.6731 168.733ZM68.3986 157.099C68.5474 157.162 68.6894 157.225 68.8218 157.289C87.7814 169.252 81.4083 168.188 78.419 179.156C61.5 164.92 63.916 173.862 68.3986 157.099ZM55.2784 166.361C67.2398 169.982 62.2398 170.693 60.5118 178.532C55.5792 176.529 50.422 175.13 45.153 174.368C48.6569 163.016 45.1789 163.111 55.2784 166.361ZM64.3556 170.319C82.4661 181.412 77.6109 179.655 74.6188 189.829C72.6389 187.677 70.538 185.64 68.3263 183.727C58.4206 177.254 62.4719 178.446 64.3556 170.316V170.319ZM78.9131 181.02C95.5986 195.955 92.1534 189.545 88.296 204.674C85.444 202.169 82.8223 199.414 80.4623 196.441C72.7761 189.21 76.8465 188.808 78.9185 181.018L78.9131 181.02ZM92.8727 193.105C95.0158 195.835 106.523 199.093 104.302 201.39C103.346 204.803 102.391 208.16 101.281 212.109C84.5054 204.775 90.0145 205.463 92.8727 193.102V193.105ZM95.9876 183.123C96.1965 183.284 96.3971 183.445 96.6169 183.596C109.502 192.683 108.174 186.88 105.033 198.803C89.7483 191.463 93.3641 192.798 95.9876 183.116V183.123ZM92.2954 191.276C75.8064 177.496 79.0059 181.812 83.2619 169.207C84.7975 170.892 86.2649 172.644 87.7732 174.342C97.2093 184.934 94.8711 181.751 92.2954 191.276ZM189.406 88.386C186.104 88.2404 182.804 88.1293 179.504 88.0529C179.612 87.2257 179.508 86.3848 179.204 85.6082C184.623 78.1186 190.499 82.9902 189.406 88.386ZM177.599 88.0065C174.095 87.926 166.952 88.3177 166.759 87.7239C166.791 77.1467 178.109 81.6976 177.599 88.0092V88.0065ZM164.024 87.8263C160.374 87.8099 156.723 87.8145 153.07 87.84C153.121 86.9229 152.972 86.0056 152.632 85.1523C158.291 76.082 164.596 82.0975 164.024 87.8291V87.8263ZM141.354 82.4988C147.423 77.922 151.567 82.7923 150.879 87.8495C147.458 87.875 144.038 87.915 140.618 87.9696C140.532 86.187 140.057 84.407 141.354 82.4988ZM138.586 88.0092C135.195 88.0652 131.805 88.1157 128.416 88.1799C128.612 86.9788 128.405 85.7465 127.826 84.6759C134.376 76.8314 139.524 82.4087 138.586 88.0092ZM126.184 88.2331L116.161 88.416C116.29 87.4712 116.216 86.5096 115.942 85.5959C121.316 78.195 127.134 82.8974 126.184 88.2331ZM109.834 81.4082C114.964 83.7409 115.439 86.2266 114.214 88.4733C110.623 88.5443 107.031 88.608 103.44 88.6644C103.596 87.5501 103.574 86.4184 103.378 85.3107C102.942 82.2435 106.882 80.0596 109.834 81.4014V81.4082ZM187.149 158.36C121.767 159.57 119.012 162.046 116.177 159.452C90.9017 139.799 95.5167 120.318 96.5923 93.4159C97.1178 90.488 96.6783 90.686 100.339 90.6723C104.466 90.6213 108.577 90.5586 112.672 90.4839C111.663 91.9595 110.259 93.122 108.622 93.8391C108.305 92.9068 107.683 92.2734 106.966 92.2734C105.93 92.2734 105.089 93.6002 105.089 95.2382C105.089 96.8762 105.93 98.2043 106.966 98.2043C107.852 98.2043 108.593 97.2351 108.791 95.9329C110.323 95.7129 111.767 95.0868 112.975 94.1197C114.183 93.1526 115.11 91.8798 115.66 90.4334L125.5 90.2464C124.528 91.7088 123.127 92.8345 121.49 93.4692C121.099 93.1221 120.605 92.9138 120.084 92.8765C119.563 92.8392 119.044 92.975 118.608 93.2628C118.172 93.5506 117.844 93.9744 117.673 94.4682C117.503 94.962 117.5 95.4982 117.666 95.9936C117.832 96.489 118.157 96.9158 118.59 97.2077C119.023 97.4996 119.54 97.6402 120.062 97.6078C120.583 97.5753 121.079 97.3716 121.473 97.0283C121.867 96.685 122.136 96.2212 122.239 95.7091C124.686 94.5653 126.671 92.6224 127.867 90.2C131.24 90.1372 134.607 90.0772 137.968 90.0198C136.485 92.7662 134.925 93.5128 133.708 93.7913C133.531 93.5152 133.289 93.2867 133.004 93.126C132.718 92.9654 132.397 92.8774 132.07 92.8699C131.495 92.9468 130.968 93.2297 130.586 93.6658C130.205 94.102 129.994 94.662 129.994 95.2416C129.994 95.8212 130.205 96.3811 130.586 96.8173C130.968 97.2535 131.495 97.5363 132.07 97.6132C132.549 97.5902 133.007 97.4065 133.37 97.0915C133.733 96.7766 133.979 96.3488 134.069 95.877C136.22 95.2109 139.03 93.1634 139.66 91.5827C140.02 91.1014 140.288 90.557 140.448 89.9775C143.749 89.9266 147.051 89.8852 150.353 89.8533C149.629 91.3337 148.382 92.4931 146.852 93.1074C146.699 92.8623 146.488 92.6583 146.237 92.513C145.987 92.3677 145.705 92.2855 145.416 92.2734C144.324 92.2734 143.438 93.4678 143.438 94.9406C143.438 96.4134 144.324 97.6091 145.416 97.6091C145.939 97.539 146.42 97.2865 146.775 96.8962C147.13 96.5058 147.335 96.0027 147.355 95.4757C148.688 95.1282 149.898 94.4165 150.85 93.4201C151.801 92.4237 152.456 91.182 152.742 89.8342C156.338 89.8069 159.934 89.7987 163.532 89.8096C162.291 91.5089 160.585 92.8122 158.618 93.562C158.219 93.4308 157.789 93.4241 157.385 93.5428C156.982 93.6614 156.624 93.8998 156.359 94.2264C156.094 94.553 155.934 94.9524 155.901 95.3717C155.868 95.791 155.963 96.2104 156.174 96.5744C156.385 96.9385 156.701 97.2299 157.081 97.4102C157.461 97.5906 157.887 97.6512 158.302 97.5842C158.717 97.5172 159.102 97.3256 159.406 97.0349C159.71 96.7442 159.919 96.368 160.004 95.9562C162.405 94.8642 165.548 91.8994 165.75 89.8137C169.517 89.8356 173.287 89.8861 177.059 89.9652C175.542 91.7674 173.456 92.9993 171.145 93.4582C170.64 93.3861 170.126 93.47 169.67 93.6986C169.215 93.9272 168.84 94.2895 168.596 94.7371C168.353 95.1847 168.252 95.6961 168.307 96.2027C168.362 96.7094 168.571 97.1871 168.905 97.5717C169.239 97.9564 169.683 98.2297 170.177 98.355C170.671 98.4803 171.192 98.4515 171.669 98.2726C172.146 98.0937 172.557 97.7732 172.847 97.354C173.137 96.9349 173.292 96.4371 173.291 95.9275C173.291 95.8783 173.291 95.8306 173.291 95.7828C175.821 94.5788 177.856 92.5344 179.048 89.998C190.417 90.271 186.393 90.2492 188.692 90.3597C187.552 91.6992 186.171 92.8135 184.621 93.6452C184.154 93.4474 183.637 93.3984 183.14 93.5049C182.644 93.6113 182.193 93.8681 181.847 94.2402C181.502 94.6123 181.28 95.0818 181.211 95.5847C181.142 96.0876 181.229 96.5996 181.462 97.0509C181.694 97.5023 182.06 97.8712 182.509 98.1074C182.958 98.3436 183.469 98.4357 183.973 98.3711C184.476 98.3065 184.948 98.0884 185.323 97.7464C185.698 97.4044 185.959 96.9552 186.07 96.4598C188.389 95.1077 190.145 92.9669 191.018 90.428C194.612 90.4771 199.079 90.4757 198.902 91.6797C199.206 128.583 205.035 137.782 221.443 158.066C210.01 157.94 198.576 158.137 187.149 158.354V158.36Z" fill="#354545"/>
<path d="M123.902 20.4105C110.068 8.63203 113.093 1.43721 108.751 6.80978C96.3297 26.2266 40.9333 23.4339 69.475 51.2181C88.967 74.0133 88.2777 77.4257 90.7305 71.8293C101.01 52.0917 135.649 55.4209 140.89 34.9148C135.573 30.3967 129.45 25.1306 123.902 20.4105ZM119.534 50.7322C108.41 55.3799 94.6357 59.3315 88.6626 71.1618C80.7457 60.5437 70.047 50.3404 63.121 39.0193C68.4854 21.2963 100.814 24.9231 110.546 8.06147C128.195 36.6278 156.807 32.1261 119.528 50.7294L119.534 50.7322Z" fill="#354545"/>
<path d="M68.6268 33.6094C68.5533 33.635 68.486 33.6759 68.4293 33.7292C68.3726 33.7826 68.3278 33.8474 68.2978 33.9192C62.438 40.897 76.6761 36.1714 68.6268 33.6094ZM69.1264 36.6901C68.5681 36.9631 67.3041 36.4171 68.4794 34.6208C69.2274 34.4284 70.7289 35.3306 69.1264 36.6901Z" fill="#354545"/>
<path d="M75.9265 29.8921C74.0156 29.2628 73.2498 32.9579 75.7068 33.6608C78.5309 34.3324 79.3513 29.9822 75.9265 29.8921ZM77.0636 31.9805C76.8056 33.7946 73.3863 30.6019 76.2787 31.066C76.104 31.3199 77.226 30.8312 77.0636 31.9805Z" fill="#354545"/>
<path d="M82.5976 26.7232C80.4969 27.7224 82.5034 31.1362 84.8812 29.789C85.1883 29.4555 85.3692 29.0252 85.3927 28.5725C85.4163 28.1198 85.281 27.6731 85.0102 27.3095C84.7394 26.946 84.3501 26.6884 83.9096 26.5814C83.4691 26.4743 83.005 26.5245 82.5976 26.7232ZM84.0991 28.9809C83.3538 29.5269 81.8291 27.448 83.7483 27.6296C84.2028 27.9039 84.6887 28.1906 84.0977 28.9809H84.0991Z" fill="#354545"/>
<path d="M89.7637 24.4185C87.6329 24.9181 88.5911 29.2846 91.575 27.8883C91.9075 27.5881 92.1309 27.1859 92.21 26.745C92.2892 26.3041 92.2197 25.8494 92.0124 25.4522C91.8051 25.0551 91.4717 24.7381 91.0647 24.551C90.6577 24.3639 90.2 24.3173 89.7637 24.4185ZM91.0249 26.9355C89.9329 27.7367 88.5502 24.903 90.9157 25.6715C91.0529 25.8497 91.1361 26.0635 91.1555 26.2875C91.1749 26.5116 91.1295 26.7364 91.0249 26.9355Z" fill="#354545"/>
<path d="M96.7015 21.8131C94.3059 22.5774 96.4831 26.6765 99.0847 24.4693C100.19 23.0852 98.6944 21.394 96.7015 21.8131ZM98.0023 23.9015C96.8885 24.5389 95.6463 22.1611 98.1784 23.0675C98.3285 23.2586 98.476 23.4374 98.0023 23.9015Z" fill="#354545"/>
<path d="M102.921 17.8415C100.327 19.4276 103.943 23.2536 105.617 20.0104C105.698 19.6585 105.678 19.2908 105.56 18.9495C105.442 18.6082 105.23 18.3071 104.949 18.0807C104.667 17.8543 104.328 17.7118 103.969 17.6695C103.611 17.6272 103.247 17.6868 102.921 17.8415ZM104.422 20.0159C103.573 20.8922 101.965 18.5035 104.114 18.7656C104.432 19.1423 104.716 19.287 104.421 20.0159H104.422Z" fill="#354545"/>
<path d="M108.026 14.1987C105.633 14.8607 107.718 18.3605 110.129 16.9546C111.257 15.7684 110.315 13.5667 108.026 14.1987ZM109.496 16.0414C109.36 16.4359 107.898 16.0414 108.075 15.4285C108.246 15.262 109.649 14.7119 109.496 16.0414Z" fill="#354545"/>
</g>
</svg>
