<svg width="247" height="213" viewBox="0 0 247 213" fill="none" xmlns="http://www.w3.org/2000/svg">
<mask id="mask0" mask-type="alpha" maskUnits="userSpaceOnUse" x="0" y="0" width="247" height="213">
<rect width="247" height="213" rx="10" fill="#FFF9F1"/>
</mask>
<g mask="url(#mask0)">
<path d="M117.699 126.977C117.784 127.111 117.902 127.222 118.041 127.298C118.181 127.374 118.338 127.413 118.497 127.411C118.656 127.409 118.811 127.366 118.949 127.287C119.087 127.207 119.202 127.094 119.283 126.957C119.37 126.831 119.427 126.686 119.449 126.534C119.47 126.382 119.457 126.227 119.409 126.081C119.361 125.935 119.28 125.802 119.172 125.693C119.064 125.583 118.933 125.5 118.787 125.45C117.828 125.168 117.1 126.378 117.699 126.977Z" fill="#354545"/>
<path d="M119.13 140.129C119.221 140.005 119.277 139.858 119.292 139.705C119.308 139.552 119.282 139.397 119.218 139.257C119.153 139.117 119.053 138.997 118.927 138.909C118.801 138.82 118.653 138.767 118.5 138.755C118.353 138.771 118.211 138.821 118.087 138.902C117.962 138.983 117.859 139.092 117.784 139.22C117.71 139.348 117.667 139.492 117.659 139.64C117.65 139.788 117.677 139.936 117.737 140.072C117.811 140.186 117.912 140.281 118.03 140.348C118.149 140.416 118.282 140.454 118.419 140.46C118.555 140.465 118.691 140.438 118.815 140.381C118.938 140.323 119.047 140.237 119.13 140.129Z" fill="#354545"/>
<path d="M118.519 151.829C118.372 151.846 118.231 151.897 118.108 151.978C117.984 152.059 117.881 152.168 117.807 152.296C117.733 152.424 117.689 152.567 117.68 152.715C117.672 152.862 117.697 153.01 117.756 153.146C117.868 153.332 118.048 153.468 118.258 153.523C118.468 153.578 118.692 153.549 118.881 153.442C119.07 153.335 119.21 153.159 119.271 152.95C119.332 152.741 119.309 152.517 119.207 152.325C119.148 152.188 119.053 152.069 118.932 151.982C118.81 151.895 118.668 151.842 118.519 151.829Z" fill="#354545"/>
<path d="M175.572 97.4665C176.465 93.1392 173.603 90.2225 180.516 86.8151C183.583 85.3039 183.973 85.3052 184.353 84.5249C184.378 84.4781 184.393 84.4264 184.396 84.3733C184.399 84.3202 184.39 84.2671 184.37 84.2178C184.35 84.1686 184.319 84.1243 184.28 84.0883C184.241 84.0522 184.194 84.0253 184.144 84.0094C183.382 83.9361 182.62 84.1471 182.005 84.6018C177.751 86.7003 174.423 88.1462 174.484 93.0191C174.423 94.5108 174.545 96.0045 174.847 97.4665C174.87 97.5447 174.918 97.6133 174.983 97.6621C175.049 97.7109 175.128 97.7372 175.21 97.7372C175.291 97.7372 175.371 97.7109 175.436 97.6621C175.501 97.6133 175.549 97.5447 175.572 97.4665Z" fill="#354545"/>
<path d="M183.494 87.8836C187.092 86.7553 190.423 84.9044 193.281 82.4444C194 81.7697 194.923 81.0702 194.904 80.0197C194.899 79.977 194.885 79.9357 194.865 79.8982C194.844 79.8607 194.815 79.8277 194.782 79.8011C194.748 79.7746 194.709 79.7549 194.668 79.7434C194.627 79.7319 194.583 79.7286 194.541 79.7339C193.588 79.9675 193.069 80.8954 192.365 81.5466C189.584 84.1226 186.216 85.4968 183.183 87.1972C183.138 87.2176 183.098 87.2467 183.064 87.2828C183.03 87.3188 183.004 87.3612 182.986 87.4075C182.969 87.4538 182.961 87.5031 182.962 87.5526C182.964 87.602 182.975 87.6506 182.995 87.6957C183.016 87.7408 183.045 87.7814 183.081 87.8152C183.117 87.8491 183.159 87.8755 183.206 87.8929C183.252 87.9104 183.301 87.9185 183.351 87.9169C183.4 87.9153 183.449 87.904 183.494 87.8836Z" fill="#354545"/>
<path d="M187.503 89.488C190.827 88.2714 193.895 86.4458 196.55 84.1049C197.49 83.441 198.252 82.5563 198.769 81.5288C198.815 81.4231 198.826 81.3052 198.801 81.1927C198.775 81.0802 198.713 80.979 198.626 80.9041C198.538 80.8291 198.428 80.7844 198.313 80.7766C198.198 80.7688 198.083 80.7983 197.986 80.8606C197.118 81.5114 196.324 82.2554 195.619 83.0791C192.778 85.6239 189.848 86.9654 187.124 88.7481C187.045 88.8076 186.989 88.8935 186.966 88.9904C186.943 89.0874 186.956 89.1892 187.001 89.2778C187.047 89.3664 187.122 89.4361 187.214 89.4746C187.305 89.5131 187.408 89.5178 187.503 89.488Z" fill="#354545"/>
<path d="M189.927 91.7978C192.877 90.7083 195.62 89.1269 198.041 87.1207C198.71 86.5882 199.543 86.0767 199.737 85.1932C199.748 85.1329 199.746 85.0708 199.73 85.0117C199.714 84.9525 199.684 84.8978 199.644 84.8517C199.603 84.8057 199.553 84.7695 199.496 84.7459C199.439 84.7223 199.378 84.7119 199.317 84.7156C198.291 84.8526 198.473 85.2571 194.749 87.9037C193.088 89.086 191.313 90.0608 189.557 91.1101C189.164 91.3202 189.492 91.9374 189.927 91.7978Z" fill="#354545"/>
<path d="M63.3556 68.1482C63.691 65.0319 61.6696 58.67 55.8545 53.7371C55.3282 53.142 54.6368 52.7168 53.8683 52.5156C53.7825 52.5156 53.6979 52.5355 53.6211 52.5737C53.5443 52.6119 53.4774 52.6674 53.4257 52.7358C53.374 52.8042 53.3388 52.8837 53.323 52.968C53.3072 53.0523 53.3111 53.1391 53.3345 53.2216C53.649 53.9485 54.7857 54.588 56.5031 56.2766C61.8536 61.541 61.8144 65.5813 62.7671 68.2252C62.8584 68.588 63.3165 68.511 63.3556 68.1482Z" fill="#354545"/>
<path d="M43.4477 51.1611C45.5535 54.1136 48.3791 56.4788 51.6562 58.0319C52.477 58.3947 53.598 59.0159 54.4998 58.6048C54.586 58.5497 54.6476 58.4635 54.6719 58.3641C54.6962 58.2647 54.6813 58.1598 54.6303 58.0711C54.0717 57.3116 52.8542 57.1758 52.0346 56.7922C48.0766 54.9378 46.5641 52.457 44.018 50.626C43.9421 50.5822 43.854 50.5639 43.7669 50.574C43.6798 50.584 43.5982 50.6219 43.5343 50.6819C43.4703 50.7419 43.4274 50.8209 43.4118 50.9072C43.3962 50.9935 43.4088 51.0825 43.4477 51.1611Z" fill="#354545"/>
<path d="M38.9229 52.095C40.1209 54.4022 46.5885 60.7001 49.3825 60.5514C49.4699 60.5491 49.5548 60.5212 49.6265 60.4713C49.6983 60.4213 49.7539 60.3514 49.7864 60.2701C49.8189 60.1889 49.8268 60.1 49.8093 60.0143C49.7918 59.9286 49.7496 59.8499 49.6878 59.7879C48.8324 59.1823 47.9182 58.6643 46.9591 58.2415C43.1628 55.9186 40.9639 52.5791 39.4566 51.5416C39.1174 51.308 38.7533 51.7635 38.9229 52.095Z" fill="#354545"/>
<path d="M36.1556 55.8757C37.6862 57.4136 39.3452 58.8181 41.1146 60.0739C42.2395 60.9535 44.1266 62.4803 45.6573 62.1554C45.716 62.1374 45.7691 62.1046 45.8115 62.0602C45.8539 62.0158 45.8842 61.9613 45.8995 61.9019C45.9148 61.8425 45.9146 61.7801 45.899 61.7207C45.8833 61.6614 45.8527 61.6071 45.81 61.5629C45.2042 61.0178 44.4975 60.5967 43.7298 60.3232C41.3391 58.9934 38.9496 56.4721 36.6476 55.2076C36.2509 54.94 35.8294 55.5129 36.1556 55.8757Z" fill="#354545"/>
<path d="M94.0671 77.5207C94.7323 76.977 95.1928 76.2231 95.3727 75.383C95.5527 74.5429 95.4414 73.6666 95.0573 72.8981C94.6731 72.1296 94.0389 71.5147 93.2589 71.1545C92.4789 70.7943 91.5996 70.7102 90.7654 70.9161C89.925 69.1217 89.1433 67.309 88.2859 65.5147C89.5469 65.3805 90.8111 65.7361 91.8173 66.5078C91.8766 66.5668 91.9565 66.6007 92.0402 66.6023C92.1239 66.6039 92.2049 66.5731 92.2665 66.5164C92.3281 66.4597 92.3654 66.3814 92.3707 66.2979C92.376 66.2144 92.3488 66.132 92.2949 66.068C91.7416 65.4198 91.0308 64.9248 90.2309 64.6307C89.431 64.3365 88.5689 64.2531 87.7274 64.3885C87.3268 63.5872 86.9026 62.8068 86.4485 62.0212C86.414 61.9624 86.3595 61.918 86.295 61.8961C86.2305 61.8741 86.1602 61.876 86.097 61.9014C86.0338 61.9269 85.9818 61.9742 85.9505 62.0347C85.9192 62.0952 85.9107 62.165 85.9265 62.2313C86.1405 63.0508 86.3846 63.873 86.6717 64.6938C86.4235 64.7968 86.1864 64.9249 85.9643 65.0762C85.5454 64.1405 85.1278 63.2035 84.6476 62.2887C84.6081 62.2244 84.5473 62.176 84.4758 62.1519C84.4043 62.1279 84.3266 62.1297 84.2562 62.157C84.1859 62.1843 84.1274 62.2355 84.0909 62.3015C84.0543 62.3675 84.0422 62.4443 84.0564 62.5184C84.3271 63.6446 84.6648 64.7537 85.0678 65.8396C84.5181 66.4151 84.149 67.139 84.0059 67.9218C83.8628 68.7047 83.952 69.5123 84.2626 70.2451C84.5732 70.9778 85.0915 71.6036 85.7536 72.0452C86.4157 72.4868 87.1926 72.7248 87.9884 72.73C88.8928 74.7293 90.4979 77.9839 90.5645 78.1314C88.3525 78.5007 87.8696 78.1314 85.5259 77.5598C85.4456 77.5387 85.3607 77.5436 85.2835 77.5738C85.2062 77.6041 85.1405 77.6581 85.096 77.7281C85.0514 77.7981 85.0302 77.8804 85.0355 77.9632C85.0407 78.0461 85.0722 78.125 85.1252 78.1888C86.5229 79.5969 89.1342 79.7157 91.0995 79.2002C91.4473 80.1888 92.0458 81.0702 92.8365 81.758C92.8778 81.7831 92.9251 81.797 92.9735 81.7982C93.0219 81.7993 93.0697 81.7878 93.1123 81.7647C93.1548 81.7415 93.1905 81.7077 93.2159 81.6664C93.2412 81.6252 93.2553 81.578 93.2567 81.5296C93.1283 80.5405 92.7615 79.5973 92.1879 78.7813C93.2619 78.2789 92.9161 78.1197 93.2319 78.7043C93.5029 79.4198 93.9735 80.0426 94.5878 80.4987C94.6363 80.5266 94.691 80.5418 94.7469 80.5429C94.8029 80.5439 94.8581 80.5308 94.9076 80.5048C94.9571 80.4787 94.9992 80.4406 95.03 80.3939C95.0608 80.3472 95.0793 80.2934 95.0837 80.2377C95.0419 79.4662 94.7766 78.7235 94.3203 78.1001C94.2565 77.8986 94.1716 77.7044 94.0671 77.5207ZM93.4759 76.3566C93.395 76.1687 92.505 74.5022 91.337 72.0619C93.5699 71.6677 95.1294 74.2295 93.4759 76.3566ZM87.1388 65.8579C87.8631 67.6849 88.7231 69.5041 89.5818 71.2789C89.296 71.3559 89.0285 71.4315 88.7414 71.489C87.978 69.752 87.272 67.9955 86.5229 66.2585C86.7097 66.0985 86.9168 65.9637 87.1388 65.8579ZM85.6303 67.309C86.1836 68.6832 86.7761 70.0391 87.3868 71.3937C86.9713 71.2863 86.5859 71.0852 86.2601 70.8058C85.9343 70.5264 85.6768 70.1762 85.5072 69.782C85.3377 69.3877 85.2607 68.9599 85.282 68.5312C85.3033 68.1026 85.4224 67.6845 85.6303 67.309ZM91.6998 77.7334C90.9729 76.2783 89.9407 74.1225 89.2764 72.6439C89.5689 72.5845 89.8561 72.5016 90.1351 72.3959C90.7876 73.7505 92.4071 76.9765 92.5598 77.2623C92.2836 77.4377 91.9963 77.595 91.6998 77.7334Z" fill="#354545"/>
<path d="M161.41 13.9966C161.601 13.2136 161.78 12.4515 161.906 11.6672C161.947 11.4192 161.6 11.2091 161.468 11.4766C160.209 14.0292 160.931 13.6951 159.846 13.5385C160.107 12.6603 160.353 11.7807 160.571 10.8842C160.644 10.5788 160.209 10.37 160.056 10.6741C159.586 11.6319 159.165 12.6132 158.795 13.6142C158.096 13.7123 157.439 14.0065 156.901 14.4627C156.362 14.9188 155.964 15.5183 155.752 16.1916C155.541 16.8649 155.524 17.5844 155.705 18.2667C155.885 18.949 156.255 19.5661 156.772 20.0466C156.102 22.3773 155.554 24.5632 155.36 25.277C153.69 24.4418 153.455 23.621 152.382 22.1842C152.195 21.9336 151.713 21.9754 151.73 22.3564C151.896 23.2562 152.295 24.0965 152.888 24.7933C153.481 25.49 154.247 26.0187 155.109 26.3262C154.79 27.2055 154.672 28.1452 154.765 29.0759C154.776 29.1164 154.798 29.1533 154.827 29.1832C154.856 29.213 154.893 29.2347 154.934 29.2461C154.974 29.2576 155.016 29.2583 155.057 29.2484C155.098 29.2385 155.135 29.2181 155.166 29.1894C155.611 28.6609 155.664 28.2655 156.064 26.6707C156.325 26.7282 156.617 26.766 156.885 26.8013C156.6 27.5623 156.514 28.3833 156.635 29.1868C156.651 29.2331 156.678 29.2748 156.714 29.3082C156.749 29.3417 156.792 29.366 156.84 29.3788C156.887 29.3917 156.936 29.3929 156.984 29.3821C157.032 29.3714 157.076 29.3491 157.113 29.3173C157.681 28.7496 157.681 27.9875 158.011 26.7778C162.028 26.214 162.47 21.5343 159.651 20.3271C160.129 18.6085 160.644 16.9107 161.122 15.192C161.58 15.493 161.974 15.8829 162.278 16.3386C162.583 16.7943 162.794 17.3066 162.897 17.845C162.958 18.1687 163.457 18.0747 163.47 17.7693C163.51 17.0114 163.339 16.2571 162.975 15.5909C162.612 14.9246 162.07 14.3726 161.41 13.9966ZM158.357 14.931C157.917 16.1916 157.536 17.4888 157.173 18.7677C156.958 18.4483 156.817 18.0848 156.761 17.7039C156.705 17.323 156.735 16.9344 156.848 16.5665C156.962 16.1986 157.156 15.8607 157.417 15.5777C157.678 15.2947 157.999 15.0737 158.357 14.931ZM156.352 25.5824C156.673 24.297 156.937 23.2021 157.669 20.6573C157.896 20.7735 158.133 20.8696 158.376 20.9444C157.686 23.4487 157.211 25.521 157.173 25.6972C156.897 25.6788 156.623 25.6404 156.352 25.5824ZM158.662 25.4519L158.319 25.5654C158.417 25.2235 158.555 24.4627 159.388 21.3659C159.747 21.6143 160.028 21.9607 160.196 22.364C160.364 22.7673 160.413 23.2105 160.337 23.6407C160.26 24.071 160.062 24.4702 159.765 24.7908C159.468 25.1115 159.085 25.34 158.662 25.4493V25.4519ZM157.994 19.5533C158.49 17.9116 159.025 16.2908 159.54 14.6661C159.759 14.6662 159.977 14.6854 160.193 14.7235C159.62 16.42 159.149 18.1595 158.686 19.8587C158.448 19.7717 158.217 19.6688 157.994 19.5507V19.5533Z" fill="#354545"/>
<path d="M166.03 76.2408C164.184 73.85 159.578 71.8743 156.925 74.0836C156.881 74.1297 156.852 74.1873 156.84 74.2496C156.829 74.3119 156.835 74.3762 156.859 74.4348C156.884 74.4934 156.924 74.5437 156.976 74.5798C157.028 74.6159 157.09 74.6362 157.153 74.6383C168.589 73.2106 167.8 85.5781 163.071 88.1333C153.443 93.3324 148.704 79.7526 155.633 75.0011C155.686 74.9656 155.723 74.9114 155.738 74.8493C155.753 74.7872 155.744 74.7219 155.712 74.6663C155.681 74.6107 155.63 74.569 155.569 74.5495C155.508 74.5301 155.442 74.5343 155.385 74.5613C149.183 77.7168 150.73 88.239 157.122 90.0986C158.841 90.5585 160.663 90.4544 162.319 89.8016C163.976 89.1488 165.378 87.9817 166.322 86.472C167.95 83.357 168.308 79.194 166.03 76.2408Z" fill="#FFC98A"/>
<path d="M155.722 84.5068C156.087 84.9858 156.55 85.3816 157.08 85.6678C157.61 85.954 158.195 86.1241 158.796 86.1667C158.759 86.7828 158.848 87.3999 159.057 87.9807C159.156 88.2078 159.491 88.1112 159.552 87.9233C159.713 87.3654 159.765 86.782 159.705 86.2046C164.167 85.9266 164.527 81.8524 161.958 80.9755C161.188 80.7932 160.39 80.7604 159.609 80.8789C159.646 79.8871 159.704 78.8757 159.704 77.8774C160.705 77.836 161.701 78.0394 162.606 78.4698C162.909 78.5899 163.025 78.1462 162.816 77.9922C161.918 77.3084 160.813 76.9516 159.684 76.9808C159.665 76.5606 159.624 76.16 159.569 75.7594C159.53 75.4723 159.073 75.4984 159.016 75.7594C158.921 76.1944 158.845 76.6524 158.786 77.1335C155.818 77.9818 155.464 81.5483 158.729 81.8863C158.729 81.9438 158.749 84.0239 158.768 85.0183C157.909 84.7465 157.092 84.3542 156.343 83.853C155.973 83.6429 155.455 84.1061 155.722 84.5068ZM162.404 83.6468C162.142 84.1358 161.741 84.5364 161.252 84.7981C160.762 85.0599 160.207 85.171 159.654 85.1175C159.654 85.0979 159.616 82.9408 159.616 81.8916C161.357 81.8916 162.99 82.0064 162.404 83.6468ZM158.529 80.8228C156.758 80.4013 157.594 78.7987 158.72 78.188C158.597 80.995 158.96 80.9246 158.529 80.8228Z" fill="#FFC98A"/>
<path d="M92.941 18.1566C90.2697 16.4601 85.0288 15.9629 83.1105 19.0349C82.8978 19.3768 83.3049 19.6534 83.6077 19.5308C86.0741 18.539 88.6267 17.8917 91.1858 18.9396C96.1853 20.9872 96.8704 28.7793 94.1443 31.6333C85.6317 40.54 76.2775 27.3047 82.0613 20.443C82.1144 20.3898 82.1442 20.3178 82.1442 20.2426C82.1442 20.1675 82.1144 20.0955 82.0613 20.0423C82.035 20.016 82.0037 19.9952 81.9694 19.9809C81.935 19.9667 81.8981 19.9594 81.8609 19.9594C81.7858 19.9594 81.7138 19.9892 81.6606 20.0423C74.8498 26.3572 83.9992 41.2616 93.9146 33.4995C94.7345 32.9141 95.4253 32.1663 95.9441 31.3027C96.4629 30.4391 96.7987 29.478 96.9304 28.4792C97.4681 24.6659 96.3575 20.332 92.941 18.1566Z" fill="#FFC98A"/>
<path d="M87.5039 26.5766C87.573 26.7854 87.7844 27.5893 88.5335 29.8391C87.5582 29.833 86.5885 29.6916 85.6521 29.4189C85.194 29.3197 84.7177 29.9318 85.1562 30.2776C85.6899 30.6629 86.2987 30.9317 86.943 31.0666C87.5873 31.2014 88.2528 31.1994 88.8963 31.0606C89.0586 31.7105 89.3507 32.3209 89.755 32.855C89.7976 32.8955 89.851 32.9228 89.9087 32.9337C89.9665 32.9446 90.0261 32.9386 90.0805 32.9164C90.135 32.8942 90.1818 32.8568 90.2155 32.8086C90.2492 32.7605 90.2683 32.7036 90.2705 32.6449C90.2679 32.0144 90.1313 31.3916 89.8698 30.8179C92.2775 30.0153 93.884 27.5645 92.5425 25.6253C91.4032 23.9797 89.6597 24.7666 88.095 25.2625C87.8092 24.2315 87.5613 23.1628 87.2546 22.1135C88.2744 21.744 89.3713 21.639 90.4427 21.8082C90.7859 21.846 90.8081 21.3449 90.5197 21.2353C89.3693 20.7904 88.0991 20.7636 86.931 21.1596C86.7821 20.7427 86.61 20.3344 86.4155 19.9368C86.3807 19.88 86.3284 19.8359 86.2666 19.8112C86.2047 19.7864 86.1365 19.7823 86.0721 19.7995C86.0077 19.8167 85.9506 19.8542 85.9092 19.9064C85.8679 19.9587 85.8445 20.0229 85.8426 20.0895C85.8734 20.597 85.9436 21.1014 86.0527 21.5981C83.2652 23.4042 83.9334 27.2657 87.5039 26.5766ZM91.8169 26.8376C92.1053 28.2314 90.6907 29.2623 89.5462 29.6251C89.5163 29.6399 89.4829 29.6462 89.4496 29.6434C89.0881 28.5367 88.7253 27.4105 88.3808 26.2843C88.7071 26.2882 91.4006 24.8332 91.8169 26.8376ZM86.3006 22.7347C87.0471 25.5457 87.2885 25.5026 87.1411 25.5026C85.301 25.8367 84.8025 24.1167 86.3006 22.7386V22.7347Z" fill="#FFC98A"/>
<path d="M131.331 89.8128C132.409 86.2123 131.656 86.01 131.676 83.8946C131.669 83.7536 131.617 83.6185 131.528 83.5089C131.438 83.3994 131.317 83.321 131.18 83.2852C123.823 81.6996 119.49 76.1716 119.365 69.9037C119.457 68.9841 119.482 68.0591 119.44 67.1358C119.431 67.0179 119.384 66.9061 119.307 66.8168C119.229 66.7276 119.125 66.6656 119.009 66.64C118.894 66.6144 118.773 66.6266 118.665 66.6748C118.557 66.7229 118.468 66.8045 118.409 66.9075C117.518 68.4917 118.018 71.9709 118.524 73.7404C119.291 76.3647 120.75 78.7344 122.748 80.6014C124.745 82.4685 127.208 83.7641 129.878 84.3527C130.374 84.4675 130.452 84.3723 130.661 84.8303C130.972 86.4268 131.043 88.061 130.87 89.6784C130.868 89.9838 131.247 90.079 131.331 89.8128Z" fill="#354545"/>
<path d="M127.679 77.4445C125.319 76.0821 123.584 73.2346 123.957 68.6449C124.256 67.5126 124.34 66.3343 124.205 65.171C124.181 65.1006 124.139 65.0374 124.084 64.9874C124.029 64.9374 123.962 64.9022 123.89 64.885C123.817 64.8678 123.742 64.8692 123.67 64.8891C123.598 64.909 123.533 64.9467 123.479 64.9987C122.634 65.9697 122.721 67.7666 122.658 69.026C122.416 73.9041 124.68 76.9865 127.449 77.9978C127.521 78.0226 127.6 78.0189 127.67 77.9875C127.739 77.9562 127.794 77.8995 127.824 77.829C127.853 77.7585 127.854 77.6795 127.827 77.6081C127.8 77.5367 127.747 77.4782 127.679 77.4445Z" fill="#354545"/>
<path d="M129.636 74.9249C127.781 69.9659 129.285 68.5826 129.483 66.03C129.497 65.9518 129.486 65.8711 129.451 65.7998C129.416 65.7285 129.359 65.6704 129.288 65.634C129.218 65.5976 129.137 65.5848 129.059 65.5976C128.98 65.6104 128.908 65.6481 128.853 65.705C126.85 67.7591 127.417 72.7886 129.063 75.2107C129.266 75.4782 129.758 75.2707 129.636 74.9249Z" fill="#354545"/>
<path d="M132.683 75.7642C131.77 70.7269 133.523 68.2056 133.466 67.0599C133.452 66.7923 133.103 66.5627 132.874 66.7545C131.803 67.6497 131.569 69.5785 131.462 70.8966C131.315 72.6078 131.556 74.3301 132.168 75.9352C132.19 76.0035 132.239 76.0601 132.303 76.0924C132.368 76.1247 132.442 76.1301 132.511 76.1074C132.579 76.0848 132.636 76.0359 132.668 75.9715C132.7 75.9071 132.706 75.8326 132.683 75.7642Z" fill="#354545"/>
<path d="M118.33 83.0557C118.133 83.0349 117.934 83.0642 117.751 83.1409C117.569 83.2175 117.408 83.3391 117.286 83.4942C116.303 84.8344 117.526 86.0324 118.374 85.4609C118.789 85.1732 119.14 84.8026 119.405 84.3725C119.49 84.2122 119.527 84.0301 119.509 83.8493C119.491 83.6685 119.42 83.4969 119.306 83.3561C119.191 83.2154 119.037 83.1118 118.863 83.0583C118.689 83.0049 118.504 83.004 118.33 83.0557Z" fill="#354545"/>
<path d="M123.75 86.4148C123.552 86.393 123.352 86.4219 123.168 86.4988C122.984 86.5758 122.823 86.6982 122.7 86.8546C121.584 88.3762 123.332 90.2097 124.819 87.7315C124.903 87.5718 124.939 87.3906 124.922 87.2107C124.904 87.0308 124.834 86.86 124.72 86.7196C124.606 86.5792 124.453 86.4755 124.281 86.4213C124.108 86.3671 123.924 86.3648 123.75 86.4148Z" fill="#354545"/>
<path d="M121.135 85.3656C120.054 85.7814 119.047 86.3678 118.152 87.1025C117.221 87.5836 116.376 88.2155 115.651 88.9726C114.521 90.7487 119.845 91.8645 119.202 90.5764C118.726 89.7934 117.743 89.7308 117.14 89.4124C118.761 88.4293 120.249 87.2425 121.568 85.8811C121.746 85.594 121.384 85.2925 121.135 85.3656Z" fill="#354545"/>
<path d="M120.41 91.8748C115.19 92.3329 115.06 91.2967 114.111 90.6142C114.064 90.5734 114.006 90.547 113.945 90.5383C113.883 90.5296 113.82 90.5389 113.764 90.5652C113.707 90.5914 113.66 90.6334 113.627 90.6861C113.593 90.7388 113.576 90.7999 113.577 90.8621C113.606 93.1537 117.127 93.2673 119.284 93.1342C115.871 97.7251 112.866 96.9356 113.195 94.3178C113.306 93.4382 113.97 92.6526 113.691 91.7783C113.43 90.9626 111.549 92.4073 111.821 95.1191C112.133 98.2406 116.422 99.9476 120.926 92.7518C120.974 92.6618 120.999 92.5608 120.997 92.4584C120.996 92.3561 120.968 92.2559 120.916 92.1677C120.864 92.0794 120.79 92.0061 120.701 91.9548C120.613 91.9035 120.513 91.8759 120.41 91.8748Z" fill="#354545"/>
<path d="M163.696 120.067C162.627 119.464 158.908 117.196 157.149 117.166C156.698 116.79 155.857 117.655 154.973 117.91C152.655 118.578 149.995 116.996 147.891 116.383C144.725 115.459 141.939 116.672 139.588 118.846C137.109 121.139 134.89 124.742 131.189 125.068C127.964 125.352 124.49 121.766 124.68 118.56C125.078 118.56 125.635 117.554 125.806 117.319C126.153 116.844 125.316 116.33 125.005 116.861C124.893 117.053 124.719 117.513 124.527 117.644C124.136 117.913 123.675 117.55 121.703 118.026C121.373 117.494 120.913 117.054 120.367 116.747C120.336 116.731 120.3 116.724 120.265 116.727C120.229 116.731 120.195 116.744 120.168 116.767C120.14 116.789 120.119 116.819 120.108 116.853C120.098 116.887 120.097 116.923 120.106 116.957C120.335 117.616 120.706 118.216 121.194 118.714C121.194 119.083 119.983 120.28 121.576 125.452C123.021 130.15 124.648 133.164 129.459 133.673C137.126 134.493 137.915 128.474 143.145 126.668C149.038 124.632 153.715 133.086 160.762 126.515C162.485 125.062 163.624 123.035 163.968 120.807C163.971 120.763 163.965 120.718 163.95 120.677C163.983 120.561 163.976 120.438 163.93 120.327C163.883 120.217 163.801 120.125 163.696 120.067ZM122.066 123.388C121.788 121.898 121.692 120.379 121.779 118.865C122.414 118.658 123.078 118.555 123.746 118.56C123.659 119.384 123.752 120.217 124.019 121.001C124.286 121.785 124.72 122.502 125.291 123.103C124.872 123.121 124.432 123.2 124.032 123.217C123.751 123.228 122.197 123.133 122.066 123.388ZM122.216 123.983C122.803 124.131 123.409 124.182 124.012 124.133C124.645 124.189 125.281 124.063 125.845 123.771C126.879 124.985 128.303 125.801 129.873 126.079C127.901 127.878 127.588 128.097 124.242 129.23C123.397 127.551 122.72 125.794 122.22 123.983H122.216ZM132.812 132.455C130.786 132.838 128.693 132.632 126.78 131.863C125.941 131.398 125.227 130.737 124.7 129.936C126.812 129.639 130.246 127.866 131.342 126.099C133.215 125.88 134.964 125.055 136.325 123.75C136.172 124.265 136.115 124.838 135.98 125.334C135.189 128.293 134.371 129.344 132.815 132.455H132.812ZM142.547 125.508C142.544 125.534 142.551 125.561 142.566 125.583C139.173 126.888 136.913 130.542 134.015 131.997C135.462 130.124 136.508 127.973 137.088 125.679C137.251 125.081 137.79 123.377 137.219 122.95C139.307 120.896 141.448 117.991 144.491 117.357C142.884 119.121 142.508 123.116 142.555 125.508H142.547ZM149.362 126.176C147.463 125.197 145.282 124.913 143.195 125.373C143.449 123.265 143.956 121.195 144.704 119.208C145.015 118.556 145.748 117.657 145.64 117.242C147.566 117.265 149.137 118.286 151.213 118.903C150.077 121.164 149.446 123.646 149.366 126.176H149.362ZM155.699 127.703C153.74 127.76 151.797 127.326 150.048 126.442C150.48 123.927 151.265 121.485 152.377 119.189C153.77 119.528 155.239 119.338 156.5 118.655C156.554 119.381 156.663 120.102 156.825 120.812C156.943 123.163 156.56 125.511 155.703 127.703H155.699ZM160.089 125.278C159.127 126.3 157.927 127.067 156.595 127.511C158.666 124.076 158.221 119.409 157.454 118.33C157.304 118.117 157.969 118.425 157.969 118.425C157.969 118.425 161.403 120.332 162.798 120.868C162.184 122.496 161.266 123.993 160.093 125.278H160.089Z" fill="#354545"/>
<path d="M198.288 90.2139C195.193 91.8556 192.371 93.8979 188.935 94.8336C187.694 95.1573 185.729 95.2147 184.89 96.3031C184.664 96.6167 184.507 96.974 184.428 97.3521C184.349 97.7301 184.35 98.1205 184.432 98.4981C183.785 98.5318 183.144 98.6409 182.522 98.823C179.787 99.1452 177.016 98.9508 174.353 98.2501C174.311 98.2116 174.261 98.1835 174.206 98.1682C174.151 98.1528 174.093 98.1507 174.037 98.1619C173.982 98.173 173.929 98.1973 173.884 98.2326C173.84 98.2679 173.804 98.3132 173.78 98.365C173.169 99.8266 168.83 119.619 170.364 127.11C170.441 127.55 171.016 127.371 171.07 127.015C171.517 123.571 171.158 120.611 172.291 112.546C174.313 98.7382 174.307 101.904 174.525 99.2354C177.051 100.133 179.762 100.383 182.409 99.961C183.21 99.8461 184.355 99.8305 184.927 99.2171C185.85 105.767 188.296 114.192 188.712 124.699C188.926 129.753 188.955 135.922 184.99 139.129C178.909 144.105 160.281 139.506 152.757 137.302C153.124 135.731 153.111 134.095 152.717 132.53C152.698 132.462 152.656 132.402 152.6 132.359C152.543 132.317 152.474 132.294 152.403 132.294C152.332 132.294 152.263 132.317 152.206 132.359C152.15 132.402 152.108 132.462 152.088 132.53C151.861 133.746 151.721 134.977 151.668 136.214C149.178 155.858 145.569 160.217 145.274 161.869C139.22 159.01 119.603 159.626 113.225 159.883C110.285 159.998 106.678 159.864 104.101 161.524C99.6496 153.864 98.3276 131.225 96.8856 122.374C96.8282 121.992 96.2109 122.089 96.2174 122.47C96.2566 124.723 96.4275 126.974 96.5802 129.227C92.5796 127.964 88.7287 126.268 85.0962 124.169C62.9112 110.411 60.1042 82.0472 55.7964 74.1389C58.2576 74.0228 63.1396 71.3345 64.5399 69.6667C65.5734 71.3371 73.7075 79.5273 82.6272 95.3843C82.9213 96.0603 83.3208 96.6853 83.8108 97.2361C83.8861 97.3067 83.9821 97.3513 84.0847 97.3633C84.1872 97.3754 84.2909 97.3542 84.3806 97.303C84.4702 97.2517 84.541 97.1731 84.5827 97.0786C84.6244 96.9842 84.6347 96.8788 84.6121 96.7781C84.3733 95.2995 75.9991 81.5096 67.6249 71.6581C67.0259 70.9508 64.9013 68.0041 63.9591 68.5079C63.2554 68.9771 62.58 69.4873 61.9364 70.036C60.36 71.1369 58.6296 71.9989 56.8012 72.5938C56.5119 71.6657 56.1416 70.7649 55.6946 69.9016C55.365 69.0038 54.7815 68.2212 54.015 67.6492C51.1101 65.599 49.5585 67.811 35.8625 59.9184C35.4997 59.7096 35.0416 60.2433 35.3849 60.5304C38.6495 63.1516 42.364 65.1566 46.3469 66.4473C50.9639 68.0629 53.2307 67.5539 54.4587 70.2461C54.8072 71.2118 55.2152 72.1549 55.6802 73.0701C55.076 73.4068 54.614 73.5491 54.7067 73.9836C55.3857 76.6361 56.2078 79.25 57.1692 81.8136C57.9522 84.314 58.7156 86.834 59.5182 89.3161C63.813 102.737 70.3575 116.084 83.016 124.648C87.0888 127.555 91.735 129.559 96.6442 130.527C97.1296 136.436 99.2307 157.769 103.249 162.135C103.037 162.643 102.933 163.189 102.943 163.739C102.391 164.291 92.4238 183.635 86.8527 203.595C84.0888 213.476 81.9668 225.43 82.2709 234.46C82.2452 237.886 83.1138 241.259 84.7908 244.247C88.2569 249.728 94.7467 251.816 100.233 246.939C99.3742 242.587 100.102 238.196 100.653 233.787C102.073 221.695 104.865 209.802 108.975 198.341C110.373 194.318 112.018 190.385 113.9 186.565C114.003 186.402 114.16 186.28 114.344 186.223C114.528 186.165 114.726 186.176 114.904 186.251C115.081 186.327 115.225 186.464 115.311 186.637C115.396 186.809 115.417 187.007 115.37 187.194C113.915 192.042 106.365 203.428 101.627 234.971C101.016 239.131 100.191 243.656 100.996 247.855C101.553 249.299 102.325 250.65 103.287 251.863C109.106 259.301 120.22 260.163 129.285 255.929C135.469 253.047 139.764 247.722 143.811 242.397C152.335 231.174 156.6 221.07 162.802 208.553C162.902 208.369 162.927 208.155 162.874 207.953C162.821 207.751 162.693 207.577 162.517 207.466C160.951 206.32 159.385 205.194 157.819 204.049C158.219 203.527 158.582 202.98 158.983 202.483C159.29 202.165 159.577 201.827 159.841 201.472C159.967 201.581 160.065 201.719 160.128 201.872C163.736 205.046 171.859 203.407 177.918 203.915C181.529 204.21 187.335 207.338 190.115 203.056C190.476 202.572 190.704 202.001 190.774 201.402C190.844 200.802 190.755 200.194 190.515 199.639C190.188 198.987 177.287 191.817 176.697 191.488C175.244 190.517 173.68 189.722 172.039 189.121C171.576 189.014 171.097 189 170.628 189.079C170.16 189.158 169.712 189.328 169.309 189.581C169.201 188.894 169.327 187.99 169.004 187.594C168.537 187.025 161.957 184.147 159.918 183.434C159.197 183.181 157.37 185.454 156.387 188.015C156.227 188.094 156.053 188.239 155.909 188.145C155.677 187.998 155.779 188.106 155.737 187.763C155.783 187.144 155.751 186.522 155.642 185.911C155.279 185.014 153.829 184.556 153.046 184.136C148.227 181.565 148.121 181.526 147.53 181.158C147.551 181.495 147.606 182.318 147.606 182.685C154.022 186.197 154.285 186.037 154.458 186.522C154.713 187.221 153.921 189.107 155.509 189.404C156.245 189.543 155.851 188.807 154.841 193.356C154.494 194.495 154.501 195.713 154.86 196.848C154.318 197.399 153.814 197.985 153.352 198.605C153.012 198.308 152.823 198.585 151.214 198.344C151.583 196.908 148.853 194.567 146.709 195.003C146.659 195.017 146.614 195.044 146.577 195.081C146.54 195.118 146.514 195.164 146.501 195.214C146.488 195.264 146.488 195.317 146.502 195.367C146.515 195.418 146.542 195.463 146.579 195.5C147.606 196.317 149.544 196.218 150.071 198C150.128 198.173 150.148 198.286 150.186 198.421C149.535 199.15 148.925 199.914 148.359 200.711C147.843 201.216 147.434 201.82 147.155 202.486C146.85 202.276 146.564 202.085 146.259 201.895C145.935 201.629 145.566 201.422 145.171 201.284C145.076 201.26 144.978 201.265 144.886 201.297C144.795 201.33 144.715 201.388 144.656 201.465C144.597 201.542 144.562 201.635 144.555 201.731C144.548 201.828 144.57 201.925 144.617 202.009C144.894 202.348 145.23 202.633 145.61 202.848C145.896 203.059 146.164 203.269 146.449 203.459C145.167 204.413 143.966 205.473 142.861 206.628C138.125 222.05 129.55 241.373 127.113 243.559C127.014 243.652 126.887 243.71 126.753 243.724C126.618 243.739 126.482 243.71 126.364 243.642C126.247 243.573 126.155 243.469 126.102 243.344C126.049 243.219 126.037 243.08 126.069 242.949C126.738 241.311 127.556 239.738 128.512 238.251C133.837 227.627 138.23 216.562 141.642 205.179C145.197 193.412 145.926 188.276 146.585 181.225L146.47 181.339C146.714 175.898 146.433 170.445 145.631 165.057C146.69 160.291 145.614 164.639 147.711 159.445C150.307 153.051 151.566 145.182 152.579 138.297C158.843 140.57 170.609 142.922 177.546 142.552C182.811 142.291 186.668 140.891 188.712 135.987C191.721 128.821 188.771 112.142 187.223 104.587C185.77 97.4032 184.957 97.2544 187.262 96.7415C191.61 96.0057 195.584 93.8272 198.542 90.5572C198.588 90.5234 198.618 90.473 198.627 90.4169C198.635 90.3609 198.621 90.3038 198.587 90.2583C198.553 90.2128 198.503 90.1825 198.447 90.1742C198.391 90.1659 198.334 90.1802 198.288 90.2139ZM156.92 190.139C157.51 188.069 158.568 186.163 160.011 184.565C160.366 184.21 159.596 184.631 166.368 187.734C166.845 187.894 167.3 188.113 167.722 188.386C168.012 188.667 167.628 188.932 168.143 190.696C168.194 190.869 168.31 191.015 168.466 191.105C168.623 191.194 168.808 191.218 168.983 191.174C169.823 190.849 171.063 190.677 171.636 189.933C171.636 189.913 171.656 189.913 171.656 189.895C173 190.975 174.459 191.903 176.008 192.662C189.174 200.231 188.144 199.761 189.388 200.259C189.23 203.398 187.104 204.373 184.024 203.809C181.499 203.049 178.89 202.607 176.256 202.492C172.463 202.384 168.221 202.962 164.325 202.397C163.009 202.206 162.129 201.557 160.832 201.309C161.093 200.124 159.84 198.713 159.038 197.916C158.255 197.133 156.957 196.159 155.831 196.541C155.755 196.482 155.661 196.448 155.564 196.446C155.683 194.285 156.142 192.157 156.925 190.139H156.92ZM155.946 197.468C156.408 197.522 156.854 197.674 157.252 197.914C157.651 198.155 157.993 198.478 158.256 198.862C158.789 199.321 159.191 199.914 159.42 200.579C158.829 200.771 158.427 201.457 158.084 201.915C157.665 202.432 157.289 202.981 156.957 203.557C155.678 202.623 154.4 201.705 153.14 200.771C154.019 199.622 154.957 198.519 155.951 197.468H155.946ZM150.697 199.034C151.278 199.432 151.982 199.608 152.682 199.53C152.543 199.741 152.416 199.958 152.3 200.182C152.224 200.125 152.169 200.087 152.09 200.03C151.968 199.96 151.83 199.923 151.689 199.923C151.548 199.923 151.41 199.96 151.288 200.03C147.454 202.469 148.763 202.266 150.702 199.034H150.697ZM110.861 186.321C108.927 184.969 107.388 185.573 106.374 185.277C106.321 185.262 106.273 185.234 106.235 185.195C106.196 185.156 106.169 185.107 106.156 185.054C106.142 185.001 106.143 184.945 106.159 184.892C106.174 184.84 106.204 184.792 106.244 184.755C107.679 183.609 110.1 184.832 111.264 185.823C111.534 186.054 111.157 186.524 110.866 186.321H110.861ZM116.052 183.782C116.02 183.886 115.955 183.977 115.867 184.041C115.78 184.105 115.674 184.14 115.565 184.14C115.457 184.14 115.351 184.105 115.263 184.041C115.176 183.977 115.111 183.886 115.079 183.782C114.186 178.04 117.283 165.245 118.572 163.946C118.782 163.946 118.973 163.946 119.183 163.927C119.503 164.327 117.78 169.365 116.988 173.91C116.081 179.207 116.455 181.024 116.064 183.782H116.052ZM123.898 188.21C122.422 188.135 121.645 187.048 118.705 186.874C118.143 186.904 117.579 186.866 117.026 186.76C116.967 186.743 116.914 186.709 116.874 186.663C116.835 186.616 116.809 186.559 116.801 186.499C116.793 186.438 116.803 186.376 116.829 186.321C116.856 186.266 116.898 186.219 116.95 186.188C118.173 185.701 119.525 185.64 120.787 186.015C121.913 186.245 123.553 186.668 124.164 187.734C124.193 187.781 124.209 187.835 124.211 187.89C124.212 187.945 124.199 188 124.173 188.048C124.146 188.097 124.107 188.137 124.06 188.166C124.012 188.194 123.958 188.21 123.903 188.21H123.898ZM144.398 164.459C131.434 162.407 118.252 162.118 105.21 163.601H103.969C103.969 162.186 103.969 162.755 104.218 162.417C107.799 161.342 108.765 161.004 124.679 161.004C129.888 160.886 135.095 161.25 140.236 162.092C142.996 162.605 143.368 162.869 144.531 163.123C144.537 163.574 144.494 164.024 144.403 164.466L144.398 164.459Z" fill="#354545"/>
<path d="M168.95 118.33C167.622 116.373 155.172 108.446 141.545 105.904C138.437 105.149 135.23 104.885 132.04 105.121C131.816 104.729 128.895 102.21 128.145 102.24C127.777 102.082 127.745 102.467 127.493 102.965C127.453 101.65 127.693 100.34 128.196 99.1245C130.057 99.9845 133.308 99.2028 134.116 97.2192C134.403 96.4991 134.506 95.7191 134.416 94.9493C134.326 94.1795 134.045 93.4442 133.6 92.8096C135.307 92.101 136.772 90.9146 137.819 89.3931C138.424 88.5982 138.842 87.678 139.043 86.7C139.245 85.7221 139.224 84.7115 138.984 83.7425C138.19 80.8088 134.823 79.4268 135.643 75.2495C136.021 74.3144 136.346 73.3584 136.616 72.3864C136.766 71.3319 134.335 72.0601 134.058 76.0508C133.715 81.2486 139.247 82.9804 137.361 87.7319C136.428 90.1566 134.15 91.0205 133.2 92.3711C133.2 92.3894 133.18 92.3894 133.18 92.409C132.224 91.4511 129.71 91.1614 129.439 92.931C129.401 93.192 129.591 93.5221 129.897 93.466C130.607 93.2093 131.389 93.2435 132.074 93.5613C132.478 93.9692 132.756 94.4851 132.874 95.0471C132.993 95.6091 132.947 96.1934 132.742 96.7298C132.441 97.2268 132.015 97.6352 131.505 97.9135C130.995 98.1918 130.421 98.33 129.841 98.3141C129.31 98.279 128.799 98.0932 128.37 97.7787C127.941 97.4641 127.61 97.0338 127.416 96.538C127.398 96.483 127.362 96.4354 127.314 96.4023C127.266 96.3693 127.209 96.3527 127.151 96.3549C127.093 96.3571 127.037 96.378 126.992 96.4146C126.947 96.4511 126.915 96.5013 126.901 96.5576C126.824 96.8747 126.816 97.2042 126.875 97.5249C126.935 97.8455 127.061 98.15 127.246 98.4185C126.752 99.2692 126.483 100.232 126.463 101.215C126.25 102.306 126.369 103.437 126.807 104.459C126.318 105.271 125.776 106.049 125.184 106.789C123.626 108.72 122.956 109.007 122.492 109.632C122.389 109.323 119.551 107.634 117.925 105.205C118.345 104.574 118.097 103.525 118.002 102.818C117.948 102.376 117.872 101.937 117.775 101.502C120.567 101.291 123.235 100.262 125.445 98.5425C125.885 98.1614 125.35 97.4985 124.874 97.646C123.337 98.1184 114.654 102.344 111.607 98.4668C108.826 94.8441 111.712 89.7416 114.07 86.0784C115.86 83.5285 117.831 81.1106 119.968 78.8435C120.254 78.5003 119.814 77.93 119.433 78.2145C116.723 80.4354 114.417 83.1088 112.619 86.1163C110.749 89.0173 108.726 92.5682 109.24 96.1569C109.373 97.481 109.939 98.7242 110.85 99.6939C111.761 100.664 112.967 101.306 114.28 101.52C114.333 101.52 115.504 101.537 116.71 101.57C116.93 102.295 117.019 103.054 116.971 103.811C116.391 102.942 116.307 101.874 114.795 102.857C114.193 103.26 113.659 103.756 113.211 104.326C112.313 102.226 109.45 102.131 107.861 103.601C105.222 100.792 103.914 102.853 102.707 102.557C101.291 102.217 101.165 102.024 94.6527 99.884C87.5639 97.5037 84.4019 96.491 81.6718 100.362C81.5009 100.59 81.8598 100.816 82.0542 100.647C85.0727 98.0374 84.7686 97.8039 95.206 101.373C103.396 104.125 103.002 104.082 103.508 104.026C104.529 103.924 104.944 102.091 107.423 105.057C107.495 105.127 107.581 105.18 107.676 105.212C107.771 105.244 107.871 105.254 107.97 105.241C108.07 105.228 108.165 105.194 108.248 105.139C108.332 105.085 108.403 105.012 108.454 104.927C109.541 103.208 111.508 103.838 112.424 105.327C112.477 105.416 112.555 105.488 112.648 105.534C112.741 105.58 112.845 105.598 112.948 105.586C113.051 105.574 113.149 105.532 113.228 105.466C113.308 105.399 113.367 105.311 113.398 105.212C113.929 104.59 114.544 104.044 115.225 103.59C115.415 103.475 115.587 103.285 115.74 103.361C116.958 106.173 119.002 108.549 121.6 110.175C120.235 111.823 119.268 113.763 118.776 115.844C116.958 113.724 115.617 111.237 114.844 108.553C114.707 107.607 114.489 106.674 114.191 105.766C114.16 105.718 114.117 105.68 114.065 105.656C114.013 105.633 113.956 105.624 113.899 105.632C113.843 105.641 113.79 105.665 113.748 105.702C113.705 105.739 113.673 105.788 113.657 105.843C113.305 107.308 114.601 113.322 118.658 117.428C118.727 117.494 118.812 117.54 118.904 117.563C118.996 117.586 119.093 117.586 119.184 117.561C119.276 117.536 119.36 117.488 119.428 117.421C119.496 117.355 119.545 117.272 119.572 117.18C120.071 114.818 121.024 112.575 122.377 110.576C122.468 110.636 122.574 110.669 122.683 110.671C124.125 112.837 125.444 115.081 126.634 117.395C126.664 117.449 126.707 117.495 126.758 117.53C126.809 117.565 126.868 117.587 126.93 117.594C126.991 117.602 127.054 117.595 127.112 117.573C127.17 117.552 127.223 117.517 127.265 117.472C129.206 115.251 130.563 112.582 131.214 109.705C131.627 108.757 131.798 107.72 131.709 106.69C131.693 106.63 131.661 106.575 131.617 106.532C131.573 106.488 131.518 106.457 131.458 106.441C131.397 106.426 131.334 106.427 131.274 106.443C131.215 106.46 131.16 106.492 131.117 106.537C130.657 107.247 130.382 108.06 130.316 108.903C129.81 111.638 128.701 114.227 127.071 116.481C126.047 114.341 124.813 112.308 123.387 110.411C124.981 109.392 128.275 105.019 128.464 103.311C130.39 104.808 131.163 105.79 131.48 105.921C132.512 106.436 139.349 105.596 151.008 109.795C162.31 113.881 166.391 118.213 168.625 118.9C168.855 118.865 169.103 118.56 168.95 118.33Z" fill="#354545"/>
<path d="M136.194 40.3564C135.38 39.2915 126.988 35.109 126.173 35.7367C125.756 36.215 125.398 36.7406 125.104 37.3027C123.145 40.1237 120.428 42.3325 117.266 43.6736C114.105 45.0147 110.628 45.4332 107.239 44.8808C107.216 44.8337 107.179 44.7954 107.132 44.7724C107.085 44.7493 107.032 44.7427 106.981 44.7538C106.93 44.7648 106.884 44.7928 106.851 44.8332C106.818 44.8735 106.8 44.9239 106.799 44.9761C107.17 49.2186 108.776 53.2595 111.419 56.5997C111.686 57.043 112.021 57.4422 112.41 57.7834C112.814 58.0287 113.324 57.7768 113.766 57.6685C119.623 56.2395 125.365 53.5408 129.165 48.7358C131.101 46.2915 132.005 43.2939 136.113 40.757C136.176 40.7138 136.22 40.6479 136.235 40.5731C136.25 40.4983 136.235 40.4206 136.194 40.3564ZM133.236 41.1577C133.268 41.2361 133.281 41.3211 133.273 41.4056C133.421 41.7723 132.541 42.1534 131.136 43.7925C130.452 44.6414 129.815 45.5271 129.228 46.4455C125.887 51.488 123.413 53.8227 115.045 56.6245C114.514 56.802 114.437 55.972 113.326 55.651C113.05 55.5957 112.767 55.583 112.487 55.6131C112.442 55.6573 112.388 55.6908 112.328 55.7112C112.269 55.7316 112.205 55.7383 112.143 55.731C112.08 55.7236 112.02 55.7022 111.967 55.6685C111.913 55.6348 111.868 55.5896 111.835 55.5361C110.851 54.0054 108.643 49.8385 108.514 48.0154C108.24 47.4699 109.709 47.6631 109.791 46.3359C109.798 46.2678 109.821 46.2025 109.86 46.1461C109.899 46.0897 109.951 46.0441 110.013 46.0136C110.074 45.983 110.142 45.9685 110.21 45.9715C110.278 45.9745 110.345 45.9948 110.403 46.0305C111.979 45.9938 113.547 45.7891 115.079 45.4198C123.218 43.1752 124.214 40.1463 125.65 38.147C125.864 37.8521 126.075 38.0491 126.222 37.9761C126.439 37.9914 126.656 37.9459 126.848 37.8447C127.041 37.7435 127.201 37.5906 127.311 37.4032C127.537 37.0795 127.833 36.799 128.112 37.0782C129.852 37.7685 131.548 38.5656 133.19 39.4651C133.62 39.7574 132.827 40.2037 133.236 41.1577Z" fill="#FFC98A"/>
<path d="M128.07 37.7998C127.87 38.0958 127.596 38.3344 127.276 38.4919C126.955 38.6494 126.599 38.7203 126.243 38.6976C125.722 39.9509 124.903 41.0579 123.857 41.9223C121.326 44.0183 118.338 45.4895 115.133 46.2171C113.642 46.7471 112.045 46.9109 110.477 46.6947C110.392 47.0217 110.229 47.3232 110.001 47.5732C109.774 47.8232 109.489 48.0144 109.172 48.1302C110.259 50.1764 109.9 50.8707 112.378 54.8875C112.841 54.7601 113.33 54.766 113.789 54.9045C114.248 55.0431 114.659 55.3086 114.974 55.6705C123.781 52.4993 125.346 50.5705 128.584 45.8973C129.598 44.177 130.933 42.6672 132.516 41.4499C132.405 41.2086 132.353 40.9448 132.363 40.6796C132.373 40.4145 132.445 40.1553 132.573 39.923C131.808 39.6268 128.212 37.8755 128.07 37.7998Z" fill="#FFC98A"/>
<path d="M65.4361 40.6245C65.4361 40.5292 65.3409 40.3948 65.226 40.4144C55.586 41.414 46.8255 33.7667 46.7877 27.1869C46.7873 27.1413 46.7691 27.0977 46.7369 27.0655C46.7046 27.0332 46.661 27.015 46.6154 27.0146C46.1822 27.0407 46.3544 26.9324 42.1301 29.6873C35.9549 33.7184 36.4416 33.1586 36.4416 33.3139C36.8971 38.9032 45.8128 49.3249 58.393 49.5951C59.5375 49.6199 60.6833 49.4241 61.8095 49.5376C62.0196 49.5376 62.0588 49.4763 64.0815 44.6321C64.8053 43.4043 65.2665 42.0397 65.4361 40.6245ZM62.2493 45.1085C61.7404 46.283 61.5303 47.4901 60.9313 47.3413C60.0961 47.1351 59.8416 47.6467 59.5571 47.9716C59.5589 48.0289 59.5487 48.0859 59.527 48.1389C59.5054 48.1919 59.4728 48.2398 59.4315 48.2794C59.3901 48.319 59.3409 48.3495 59.287 48.3689C59.2331 48.3883 59.1757 48.3961 59.1186 48.3919C54.7263 48.2365 50.4501 46.9403 46.7107 44.6308C43.8593 42.8169 40.157 39.3286 38.8468 36.2136C38.7974 36.1904 38.7534 36.1572 38.7176 36.1161C38.6819 36.075 38.6551 36.0268 38.639 35.9747C38.6229 35.9226 38.6178 35.8678 38.6242 35.8136C38.6305 35.7595 38.6481 35.7072 38.6758 35.6603C38.8859 35.2975 39.1691 35.0495 39.2095 34.6163C39.2865 33.7941 38.788 33.2369 39.2865 33.1664C40.495 32.2895 41.766 32.1981 44.4021 30.0344C44.4673 29.982 44.5456 29.9485 44.6285 29.9374C44.7114 29.9264 44.7958 29.9382 44.8724 29.9717C44.9491 30.0052 45.0151 30.059 45.0633 30.1274C45.1115 30.1957 45.1401 30.2759 45.146 30.3594C45.9708 31.5678 46.712 30.85 46.712 31.5613C48.1696 34.1513 50.1531 36.4078 52.5349 38.1854C59.4814 43.2227 62.2284 40.5097 62.0014 41.8695C62.3302 42.7438 62.8562 42.3223 63.2046 42.6707C63.3729 43.3467 63.0924 43.1692 62.2493 45.1085Z" fill="#FFC98A"/>
<path d="M61.2943 42.2836C56.8769 42.6256 51.358 39.029 48.4674 35.5277C47.4848 34.4863 46.7078 33.2687 46.1772 31.9389C45.8573 31.9063 45.5515 31.7905 45.2902 31.6029C45.029 31.4154 44.8214 31.1628 44.6882 30.8701C43.1675 32.0637 41.4579 32.9944 39.63 33.6237C39.8552 33.9937 39.958 34.4253 39.9238 34.857C39.8896 35.2888 39.7201 35.6989 39.4395 36.0288C41.4251 39.1538 44.0457 41.8264 47.1311 43.8731C50.7104 46.1283 54.8323 47.3749 59.0614 47.4815C59.2368 47.1288 59.5269 46.8463 59.884 46.6803C60.2411 46.5143 60.6441 46.4747 61.0268 46.568C61.1484 45.9759 61.3339 45.3987 61.5801 44.8467C62.5562 42.4507 62.4714 43.7335 61.6192 42.8813C61.4709 42.7066 61.3603 42.5031 61.2943 42.2836Z" fill="#FFC98A"/>
<path d="M195.615 67.1173C193.852 63.5025 193.159 62.2679 192.103 60.3026C191.868 59.8667 191.568 58.7523 190.919 58.8136C190.371 58.8658 190.378 59.3199 188.591 60.0351C187.256 61.4706 182.939 61.8869 180.975 61.9065C178.398 61.9312 175.305 60.8846 174.084 58.3934C174.06 58.3475 174.053 58.2946 174.064 58.2441C174.076 58.1936 174.104 58.1488 174.146 58.1176C174.187 58.0863 174.238 58.0707 174.29 58.0734C174.341 58.0761 174.39 58.097 174.428 58.1324C176.516 60.2021 177.847 61.2644 181.127 61.1874C183.417 61.2121 185.689 60.7772 187.808 59.9085C183.119 52.5535 183.502 49.4359 182.616 49.8874C180.944 50.586 179.173 51.0176 177.367 51.1663C172.277 51.9036 171.554 51.4103 171.603 51.9676C172.794 65.8984 185.612 73.3565 194.298 70.2376C194.832 70.0457 196.15 69.6451 196.398 69.0735C196.631 68.7133 195.752 67.3979 195.615 67.1173ZM173.702 56.4281C173.525 56.0731 173.066 54.6937 173.473 54.5567C174.218 54.2135 174.686 53.8507 174.752 53.1068C174.754 53.0162 174.791 52.9299 174.855 52.8658C174.919 52.8017 175.006 52.7646 175.096 52.7623C180.455 52.3852 180.288 50.9353 181.204 52.0759C181.261 52.1333 181.299 52.2064 181.318 52.2064C181.485 52.3858 181.7 52.5123 181.938 52.5701C182.175 52.6279 182.425 52.6144 182.655 52.5313C183.224 52.3786 183.002 52.9228 184.773 56.2532C185.749 58.0893 187.122 59.7845 186.242 59.7845C185.51 59.7845 182.835 54.0425 182.54 53.3704C182.186 53.4329 181.822 53.3985 181.486 53.271C181.15 53.1436 180.854 52.9277 180.631 52.6462C180.573 52.5313 180.517 52.4739 180.46 52.4543C180.267 52.4074 178.241 53.0886 177.73 53.1799C176.971 53.3075 176.207 53.3947 175.439 53.4409C175.371 53.8114 175.195 54.1537 174.934 54.4251C174.673 54.6966 174.338 54.8853 173.97 54.9678C174.273 56.1814 174.684 56.6643 174.599 57.0871C174.581 57.1395 174.545 57.1837 174.497 57.2117C174.449 57.2397 174.393 57.2497 174.338 57.2398C174.18 57.1586 174.041 57.044 173.931 56.9038C173.821 56.7637 173.743 56.6013 173.702 56.4281Z" fill="#FFC98A"/>
</g>
</svg>
