<svg xmlns="http://www.w3.org/2000/svg" viewBox="0 0 5000 3200">
	<g data-name="‘ëîé_1">
		<path fill="#191e3a" d="m3863.519 2395.813-536.49-.085 16.98-145.358.483-4.125 12.888-110.347c.182-1.532.889-2.624 1.692-2.624h476.013c.825 0 1.543 1.135 1.704 2.71l11.356 110.347v.021l.418 4.018Z" />
		<path d="M3848.563 2250.37h-504.554l.483-4.125 12.888-110.347c.182-1.532.889-2.624 1.692-2.624h476.013c.825 0 1.543 1.135 1.704 2.71l11.356 110.347v.021Z" style="mix-blend-mode:multiply" fill="#211f44" opacity=".5" />
		<path fill="#2f386e" d="M4637.243 935.531v1135.631c0 40.186-34.145 72.747-76.266 72.747H2629.565c-42.121 0-76.267-32.56-76.267-72.747V935.532c0-40.176 34.146-72.747 76.267-72.747h1931.412c42.12 0 76.266 32.571 76.266 72.746Z" />
		<path fill="#262f5f" d="M4637.246 935.533v1135.634c0 40.176-34.147 72.746-76.267 72.746H3374.708c957.741-1.406 1012.08-1281.126 1012.08-1281.126h174.191c42.12 0 76.267 32.57 76.267 72.746Z" />
		<path fill="#fff" d="M4572.493 975.451v912.031a48.152 48.152 0 0 1-48.14 48.151H2666.2a48.144 48.144 0 0 1-48.15-48.15V975.45a48.154 48.154 0 0 1 48.15-48.15h1858.154a48.152 48.152 0 0 1 48.14 48.15Z" />
		<path fill="#9dbde4" d="M3472.148 2011.979h247.16a24.762 24.762 0 0 1 24.762 24.761 24.761 24.761 0 0 1-24.762 24.762h-247.16a24.761 24.761 0 0 1-24.762-24.762 24.762 24.762 0 0 1 24.762-24.761Z" />
		<path fill="#739cd2" d="M3718.11 2065.896h-244.764c-16.855 0-30.567-13.079-30.567-29.156s13.712-29.157 30.567-29.157h244.764c16.854 0 30.568 13.08 30.568 29.157s-13.713 29.156-30.568 29.156Zm-244.764-49.522c-11.773 0-21.352 9.136-21.352 20.366s9.579 20.366 21.352 20.366h244.764c11.773 0 21.352-9.136 21.352-20.366s-9.579-20.366-21.352-20.366Z" />
		<path fill="#f2f8ff" d="m3562.196 936.149-933.2 933.21v-307.43l625.75-625.78h307.45zM4564.906 974.329v158.97l-793.5 793.49h-686.82l990.65-990.64h449.64c22.07 0 40.03 17.13 40.03 38.18ZM4564.906 1230.709v187.5l-508.59 508.58h-187.49l696.08-696.08z" />
		<path fill="#191e3a" d="M4524.874 1944.472H2669.028c-32.296 0-58.572-25.062-58.572-55.868V974.328c0-30.805 26.276-55.867 58.572-55.867h1855.846c32.296 0 58.57 25.062 58.57 55.867v914.276c0 30.806-26.274 55.868-58.57 55.868Zm.002-1008.323h-1855.85c-22.07 0-40.03 17.13-40.03 38.18v914.27c0 21.06 17.96 38.19 40.03 38.19h1855.85c22.07 0 40.03-17.13 40.03-38.19v-914.27c0-21.05-17.96-38.18-40.03-38.18Z" />
		<path fill="#262f5f" d="M992.772 1356.048h1440.23a46.065 46.065 0 0 1 46.065 46.065v855.626a46.065 46.065 0 0 1-46.065 46.065H992.772a46.065 46.065 0 0 1-46.065-46.065v-855.627a46.065 46.065 0 0 1 46.065-46.064Z" />
		<path fill="#fff" d="M990.857 1405.542h1444.059v840.779H990.857z" />
		<path fill="#211f44" d="M990.855 1405.545h20.49v840.777h-20.49z" />
		<path fill="#f2f8ff" d="m1551.358 1426.035-540.013 540.034v218.822l758.909-758.909-218.896.053zM2434.916 1405.542v209.812l-630.967 630.967h-488.866l830.793-830.792v-9.987h289.04zM2434.916 1684.694v133.454l-428.174 428.173h-133.453l561.627-561.627z" />
		<path fill="#211f44" d="M2414.429 1405.545h20.49v840.777h-20.49z" />
		<path fill="#211f44" d="M1702.642 693.759h20.49v1444.064h-20.49z" transform="rotate(-90 1712.887 1415.79)" />
		<path fill="#211f44" d="M813.06 2314.06H2613.01a81.753 81.753 0 0 1-81.753 81.753H894.813a81.753 81.753 0 0 1-81.754-81.753Z" />
		<path fill="#739cd2" d="M2512.859 2295.985H912.916a18.075 18.075 0 0 0-18.075 18.075h1636.093a18.075 18.075 0 0 0-18.075-18.075Z" />
		<path fill="#9dbde4" d="M1739.517 2314.233h-188.16l13.974 18.31a20.777 20.777 0 0 0 16.516 8.172h262.376a20.777 20.777 0 0 0 16.517-8.172l13.973-18.31Z" />
		<path fill="#191e3a" d="M401.242 2395.387h4197.516a19.329 19.329 0 0 1 19.329 19.329 19.329 19.329 0 0 1-19.329 19.329H401.242a19.329 19.329 0 0 1-19.329-19.329 19.329 19.329 0 0 1 19.329-19.329Z" />
		<rect width="167.762" height="38.658" x="162.467" y="2395.387" fill="#191e3a" rx="19.329" />
		<path fill="#191e3a" d="M123.61 2414.712a19.324 19.324 0 0 1-19.33 19.33H0v-38.66h104.28a19.334 19.334 0 0 1 19.33 19.33ZM4794.02 2437.215h-116.907a20.914 20.914 0 0 1-20.914-20.914 20.914 20.914 0 0 1 20.914-20.914h116.906a20.914 20.914 0 0 1 20.914 20.914 20.914 20.914 0 0 1-20.914 20.914ZM5000 2395.383v41.83h-107.41a20.915 20.915 0 0 1 0-41.83Z" />
	</g>
</svg>
