<svg xmlns="http://www.w3.org/2000/svg" xmlns:xlink="http://www.w3.org/1999/xlink" width="16" zoomAndPan="magnify" viewBox="0 0 375 374.999991" height="16" preserveAspectRatio="xMidYMid meet" version="1.0"><defs><clipPath id="82cb353faf"><path d="M 17.25 0 L 357.75 0 C 362.324219 0 366.710938 1.816406 369.949219 5.050781 C 373.183594 8.289062 375 12.675781 375 17.25 L 375 359.179688 C 375 363.753906 373.183594 368.140625 369.949219 371.378906 C 366.710938 374.613281 362.324219 376.429688 357.75 376.429688 L 17.25 376.429688 C 12.675781 376.429688 8.289062 374.613281 5.050781 371.378906 C 1.816406 368.140625 0 363.753906 0 359.179688 L 0 17.25 C 0 12.675781 1.816406 8.289062 5.050781 5.050781 C 8.289062 1.816406 12.675781 0 17.25 0 " clip-rule="nonzero"/></clipPath><clipPath id="e89c97a0f8"><path d="M 112.5 122.53125 L 262.5 122.53125 L 262.5 252.28125 L 112.5 252.28125 Z M 112.5 122.53125 " clip-rule="nonzero"/></clipPath><clipPath id="01538f9b02"><path d="M 21.585938 22.625 L 353.8125 22.625 L 353.8125 352.507812 L 21.585938 352.507812 Z M 21.585938 22.625 " clip-rule="nonzero"/></clipPath><clipPath id="ef0c5aaec5"><path d="M 38.835938 22.625 L 336.164062 22.625 C 340.738281 22.625 345.125 24.441406 348.359375 27.675781 C 351.597656 30.910156 353.414062 35.300781 353.414062 39.875 L 353.414062 335.125 C 353.414062 339.699219 351.597656 344.089844 348.359375 347.324219 C 345.125 350.558594 340.738281 352.375 336.164062 352.375 L 38.835938 352.375 C 34.261719 352.375 29.875 350.558594 26.640625 347.324219 C 23.402344 344.089844 21.585938 339.699219 21.585938 335.125 L 21.585938 39.875 C 21.585938 35.300781 23.402344 30.910156 26.640625 27.675781 C 29.875 24.441406 34.261719 22.625 38.835938 22.625 " clip-rule="nonzero"/></clipPath><clipPath id="4e5d9334e5"><path d="M 87 100 L 288 100 L 288 275.992188 L 87 275.992188 Z M 87 100 " clip-rule="nonzero"/></clipPath></defs><rect x="-37.5" width="450" fill="#ffffff" y="-37.499999" height="449.999989" fill-opacity="1"/><rect x="-37.5" width="450" fill="#ffffff" y="-37.499999" height="449.999989" fill-opacity="1"/><g clip-path="url(#82cb353faf)"><rect x="-37.5" width="450" fill="#e43b4f" y="-37.499999" height="449.999989" fill-opacity="1"/></g><g clip-path="url(#e89c97a0f8)"><path fill="#ffffff" d="M 112.5 252.265625 L 187.5 122.546875 L 262.5 252.265625 Z M 112.5 252.265625 " fill-opacity="1" fill-rule="nonzero"/></g><g clip-path="url(#01538f9b02)"><g clip-path="url(#ef0c5aaec5)"><path fill="#ffffff" d="M 21.585938 22.625 L 353.226562 22.625 L 353.226562 352.507812 L 21.585938 352.507812 Z M 21.585938 22.625 " fill-opacity="1" fill-rule="nonzero"/></g></g><g clip-path="url(#4e5d9334e5)"><path fill="#e43b4f" d="M 88.367188 264.085938 L 180.484375 104.285156 C 183.523438 98.996094 191.128906 98.996094 194.167969 104.285156 L 286.285156 264.125 C 289.328125 269.414062 285.523438 275.988281 279.441406 275.988281 L 95.210938 275.988281 C 89.128906 275.949219 85.328125 269.375 88.367188 264.085938 Z M 88.367188 264.085938 " fill-opacity="1" fill-rule="nonzero"/></g></svg>