<svg xmlns="http://www.w3.org/2000/svg" xmlns:xlink="http://www.w3.org/1999/xlink" width="16" zoomAndPan="magnify" viewBox="0 0 375 374.999991" height="16" preserveAspectRatio="xMidYMid meet" version="1.0"><defs><clipPath id="bd78ffd0c8"><path d="M 17.25 0 L 357.75 0 C 362.324219 0 366.710938 1.816406 369.949219 5.050781 C 373.183594 8.289062 375 12.675781 375 17.25 L 375 359.179688 C 375 363.753906 373.183594 368.140625 369.949219 371.378906 C 366.710938 374.613281 362.324219 376.429688 357.75 376.429688 L 17.25 376.429688 C 12.675781 376.429688 8.289062 374.613281 5.050781 371.378906 C 1.816406 368.140625 0 363.753906 0 359.179688 L 0 17.25 C 0 12.675781 1.816406 8.289062 5.050781 5.050781 C 8.289062 1.816406 12.675781 0 17.25 0 " clip-rule="nonzero"/></clipPath><clipPath id="e59692fc0b"><path d="M 112.5 122.53125 L 262.5 122.53125 L 262.5 252.28125 L 112.5 252.28125 Z M 112.5 122.53125 " clip-rule="nonzero"/></clipPath><clipPath id="658710e39f"><path d="M 21.585938 22.625 L 353.8125 22.625 L 353.8125 352.507812 L 21.585938 352.507812 Z M 21.585938 22.625 " clip-rule="nonzero"/></clipPath><clipPath id="a5d87b60da"><path d="M 38.835938 22.625 L 336.164062 22.625 C 340.738281 22.625 345.125 24.441406 348.359375 27.675781 C 351.597656 30.910156 353.414062 35.300781 353.414062 39.875 L 353.414062 335.125 C 353.414062 339.699219 351.597656 344.089844 348.359375 347.324219 C 345.125 350.558594 340.738281 352.375 336.164062 352.375 L 38.835938 352.375 C 34.261719 352.375 29.875 350.558594 26.640625 347.324219 C 23.402344 344.089844 21.585938 339.699219 21.585938 335.125 L 21.585938 39.875 C 21.585938 35.300781 23.402344 30.910156 26.640625 27.675781 C 29.875 24.441406 34.261719 22.625 38.835938 22.625 " clip-rule="nonzero"/></clipPath><clipPath id="f5afab333d"><path d="M 91.050781 91.050781 L 283.800781 91.050781 L 283.800781 283.800781 L 91.050781 283.800781 Z M 91.050781 91.050781 " clip-rule="nonzero"/></clipPath></defs><rect x="-37.5" width="450" fill="#ffffff" y="-37.499999" height="449.999989" fill-opacity="1"/><rect x="-37.5" width="450" fill="#ffffff" y="-37.499999" height="449.999989" fill-opacity="1"/><rect x="-37.5" width="450" fill="#ffffff" y="-37.499999" height="449.999989" fill-opacity="1"/><g clip-path="url(#bd78ffd0c8)"><rect x="-37.5" width="450" fill="#0f8a65" y="-37.499999" height="449.999989" fill-opacity="1"/></g><g clip-path="url(#e59692fc0b)"><path fill="#ffffff" d="M 112.5 252.265625 L 187.5 122.546875 L 262.5 252.265625 Z M 112.5 252.265625 " fill-opacity="1" fill-rule="nonzero"/></g><g clip-path="url(#658710e39f)"><g clip-path="url(#a5d87b60da)"><path fill="#ffffff" d="M 21.585938 22.625 L 353.226562 22.625 L 353.226562 352.507812 L 21.585938 352.507812 Z M 21.585938 22.625 " fill-opacity="1" fill-rule="nonzero"/></g></g><g clip-path="url(#f5afab333d)"><path fill="#0f8a65" d="M 283.800781 187.425781 C 283.800781 189.003906 283.761719 190.582031 283.6875 192.15625 C 283.609375 193.730469 283.492188 195.304688 283.335938 196.875 C 283.183594 198.441406 282.988281 200.007812 282.757812 201.566406 C 282.527344 203.128906 282.257812 204.679688 281.949219 206.226562 C 281.640625 207.777344 281.296875 209.3125 280.914062 210.84375 C 280.53125 212.375 280.109375 213.894531 279.652344 215.402344 C 279.195312 216.914062 278.699219 218.410156 278.167969 219.894531 C 277.636719 221.378906 277.070312 222.851562 276.464844 224.308594 C 275.863281 225.765625 275.222656 227.207031 274.546875 228.632812 C 273.875 230.058594 273.164062 231.464844 272.421875 232.859375 C 271.679688 234.25 270.902344 235.621094 270.089844 236.972656 C 269.28125 238.324219 268.4375 239.660156 267.558594 240.96875 C 266.683594 242.28125 265.773438 243.570312 264.835938 244.835938 C 263.894531 246.105469 262.925781 247.347656 261.925781 248.566406 C 260.925781 249.785156 259.894531 250.980469 258.835938 252.148438 C 257.777344 253.316406 256.6875 254.457031 255.574219 255.574219 C 254.457031 256.6875 253.316406 257.777344 252.148438 258.835938 C 250.980469 259.894531 249.785156 260.925781 248.566406 261.925781 C 247.347656 262.925781 246.105469 263.894531 244.835938 264.835938 C 243.570312 265.773438 242.28125 266.683594 240.96875 267.558594 C 239.660156 268.4375 238.324219 269.28125 236.972656 270.089844 C 235.621094 270.902344 234.25 271.679688 232.859375 272.421875 C 231.464844 273.164062 230.058594 273.875 228.632812 274.546875 C 227.207031 275.222656 225.765625 275.863281 224.308594 276.464844 C 222.851562 277.070312 221.378906 277.636719 219.894531 278.167969 C 218.410156 278.699219 216.914062 279.195312 215.402344 279.652344 C 213.894531 280.109375 212.375 280.53125 210.84375 280.914062 C 209.3125 281.296875 207.777344 281.640625 206.226562 281.949219 C 204.679688 282.257812 203.128906 282.527344 201.566406 282.757812 C 200.007812 282.988281 198.441406 283.183594 196.875 283.335938 C 195.304688 283.492188 193.730469 283.609375 192.15625 283.6875 C 190.582031 283.761719 189.003906 283.800781 187.425781 283.800781 C 185.847656 283.800781 184.273438 283.761719 182.699219 283.6875 C 181.121094 283.609375 179.550781 283.492188 177.980469 283.335938 C 176.410156 283.183594 174.84375 282.988281 173.285156 282.757812 C 171.726562 282.527344 170.171875 282.257812 168.625 281.949219 C 167.078125 281.640625 165.539062 281.296875 164.007812 280.914062 C 162.480469 280.53125 160.960938 280.109375 159.449219 279.652344 C 157.941406 279.195312 156.445312 278.699219 154.957031 278.167969 C 153.472656 277.636719 152.003906 277.070312 150.546875 276.464844 C 149.089844 275.863281 147.648438 275.222656 146.222656 274.546875 C 144.796875 273.875 143.386719 273.164062 141.996094 272.421875 C 140.605469 271.679688 139.234375 270.902344 137.878906 270.089844 C 136.527344 269.28125 135.195312 268.4375 133.882812 267.558594 C 132.570312 266.683594 131.28125 265.773438 130.015625 264.835938 C 128.75 263.894531 127.507812 262.925781 126.285156 261.925781 C 125.066406 260.925781 123.875 259.894531 122.707031 258.835938 C 121.535156 257.777344 120.394531 256.6875 119.277344 255.574219 C 118.164062 254.457031 117.078125 253.316406 116.015625 252.148438 C 114.957031 250.980469 113.929688 249.785156 112.929688 248.566406 C 111.925781 247.347656 110.957031 246.105469 110.015625 244.835938 C 109.078125 243.570312 108.171875 242.28125 107.292969 240.96875 C 106.417969 239.660156 105.574219 238.324219 104.761719 236.972656 C 103.953125 235.621094 103.175781 234.25 102.429688 232.859375 C 101.6875 231.464844 100.980469 230.058594 100.304688 228.632812 C 99.628906 227.207031 98.992188 225.765625 98.386719 224.308594 C 97.785156 222.851562 97.214844 221.378906 96.683594 219.894531 C 96.152344 218.410156 95.660156 216.914062 95.203125 215.402344 C 94.742188 213.894531 94.324219 212.375 93.941406 210.84375 C 93.558594 209.3125 93.210938 207.777344 92.902344 206.226562 C 92.597656 204.679688 92.328125 203.128906 92.09375 201.566406 C 91.863281 200.007812 91.671875 198.441406 91.515625 196.875 C 91.359375 195.304688 91.246094 193.730469 91.167969 192.15625 C 91.089844 190.582031 91.050781 189.003906 91.050781 187.425781 C 91.050781 185.847656 91.089844 184.273438 91.167969 182.699219 C 91.246094 181.121094 91.359375 179.550781 91.515625 177.980469 C 91.671875 176.410156 91.863281 174.84375 92.09375 173.285156 C 92.328125 171.726562 92.597656 170.171875 92.902344 168.625 C 93.210938 167.078125 93.558594 165.539062 93.941406 164.007812 C 94.324219 162.480469 94.742188 160.960938 95.203125 159.449219 C 95.660156 157.941406 96.152344 156.445312 96.683594 154.957031 C 97.214844 153.472656 97.785156 152.003906 98.386719 150.546875 C 98.992188 149.089844 99.628906 147.648438 100.304688 146.222656 C 100.980469 144.796875 101.6875 143.386719 102.429688 141.996094 C 103.175781 140.605469 103.953125 139.234375 104.761719 137.878906 C 105.574219 136.527344 106.417969 135.195312 107.292969 133.882812 C 108.171875 132.570312 109.078125 131.28125 110.015625 130.015625 C 110.957031 128.75 111.925781 127.507812 112.929688 126.285156 C 113.929688 125.066406 114.957031 123.875 116.015625 122.707031 C 117.078125 121.535156 118.164062 120.394531 119.277344 119.277344 C 120.394531 118.164062 121.535156 117.078125 122.707031 116.015625 C 123.875 114.957031 125.066406 113.929688 126.285156 112.929688 C 127.507812 111.925781 128.75 110.957031 130.015625 110.015625 C 131.28125 109.078125 132.570312 108.171875 133.882812 107.292969 C 135.195312 106.417969 136.527344 105.574219 137.878906 104.761719 C 139.234375 103.953125 140.605469 103.175781 141.996094 102.429688 C 143.386719 101.6875 144.796875 100.980469 146.222656 100.304688 C 147.648438 99.628906 149.089844 98.992188 150.546875 98.386719 C 152.003906 97.785156 153.472656 97.214844 154.957031 96.683594 C 156.445312 96.152344 157.941406 95.660156 159.449219 95.203125 C 160.960938 94.742188 162.480469 94.324219 164.007812 93.941406 C 165.539062 93.558594 167.078125 93.210938 168.625 92.902344 C 170.171875 92.597656 171.726562 92.328125 173.285156 92.09375 C 174.84375 91.863281 176.410156 91.671875 177.980469 91.515625 C 179.550781 91.359375 181.121094 91.246094 182.699219 91.167969 C 184.273438 91.089844 185.847656 91.050781 187.425781 91.050781 C 189.003906 91.050781 190.582031 91.089844 192.15625 91.167969 C 193.730469 91.246094 195.304688 91.359375 196.875 91.515625 C 198.441406 91.671875 200.007812 91.863281 201.566406 92.09375 C 203.128906 92.328125 204.679688 92.597656 206.226562 92.902344 C 207.777344 93.210938 209.3125 93.558594 210.84375 93.941406 C 212.375 94.324219 213.894531 94.742188 215.402344 95.203125 C 216.914062 95.660156 218.410156 96.152344 219.894531 96.683594 C 221.378906 97.214844 222.851562 97.785156 224.308594 98.386719 C 225.765625 98.992188 227.207031 99.628906 228.632812 100.304688 C 230.058594 100.980469 231.464844 101.6875 232.859375 102.429688 C 234.25 103.175781 235.621094 103.953125 236.972656 104.761719 C 238.324219 105.574219 239.660156 106.417969 240.96875 107.292969 C 242.28125 108.171875 243.570312 109.078125 244.835938 110.015625 C 246.105469 110.957031 247.347656 111.925781 248.566406 112.929688 C 249.785156 113.929688 250.980469 114.957031 252.148438 116.015625 C 253.316406 117.078125 254.457031 118.164062 255.574219 119.277344 C 256.6875 120.394531 257.777344 121.535156 258.835938 122.707031 C 259.894531 123.875 260.925781 125.066406 261.925781 126.285156 C 262.925781 127.507812 263.894531 128.75 264.835938 130.015625 C 265.773438 131.28125 266.683594 132.570312 267.558594 133.882812 C 268.4375 135.195312 269.28125 136.527344 270.089844 137.878906 C 270.902344 139.234375 271.679688 140.605469 272.421875 141.996094 C 273.164062 143.386719 273.875 144.796875 274.546875 146.222656 C 275.222656 147.648438 275.863281 149.089844 276.464844 150.546875 C 277.070312 152.003906 277.636719 153.472656 278.167969 154.957031 C 278.699219 156.445312 279.195312 157.941406 279.652344 159.449219 C 280.109375 160.960938 280.53125 162.480469 280.914062 164.007812 C 281.296875 165.539062 281.640625 167.078125 281.949219 168.625 C 282.257812 170.171875 282.527344 171.726562 282.757812 173.285156 C 282.988281 174.84375 283.183594 176.410156 283.335938 177.980469 C 283.492188 179.550781 283.609375 181.121094 283.6875 182.699219 C 283.761719 184.273438 283.800781 185.847656 283.800781 187.425781 Z M 283.800781 187.425781 " fill-opacity="1" fill-rule="nonzero"/></g></svg>